<svg width="320" height="520" viewBox="0 0 320 520" fill="none" xmlns="http://www.w3.org/2000/svg" role="img" aria-label="战车">
  <rect x="10" y="10" width="300" height="500" rx="30" fill="url(#paper)" stroke="url(#edge)" stroke-width="2"/>
  <rect x="28" y="28" width="264" height="464" rx="22" fill="rgba(255,255,255,.30)" stroke="rgba(255,255,255,.7)"/>
  <circle cx="56" cy="74" r="22" fill="#9A78C9" opacity=".14"/>
  <circle cx="264" cy="446" r="30" fill="#F8DFA7" opacity=".2"/>
  <text x="160" y="62" text-anchor="middle" font-family="-apple-system,BlinkMacSystemFont,Segoe UI,sans-serif" font-size="22" font-weight="700" fill="#2C2439">战车</text>
  <text x="160" y="86" text-anchor="middle" font-family="-apple-system,BlinkMacSystemFont,Segoe UI,sans-serif" font-size="12" font-weight="600" fill="#7E718D">The Chariot</text>
  <clipPath id="win"><rect x="46" y="100" width="228" height="256" rx="18"/></clipPath>
  <g clip-path="url(#win)">
    <rect x="46" y="100" width="228" height="256" fill="url(#sky)"/>
    <circle cx="160" cy="112" r="150" fill="#9A78C9" opacity=".05"/><rect x="68" y="240" width="24" height="56" fill="#9aa0c0" opacity=".55"/><path d="M66 240 L80 224 L94 240 Z" fill="#9aa0c0" opacity=".6"/><rect x="228" y="240" width="24" height="56" fill="#9aa0c0" opacity=".55"/><path d="M226 240 L240 224 L254 240 Z" fill="#9aa0c0" opacity=".6"/><rect x="46" y="296" width="228" height="60" fill="#d6cbaf" opacity="0.5"/>
    <path d="M120 129 L121.32 132.18 L124.76 132.45 L122.14 134.7 L122.94 138.05 L120 136.25 L117.06 138.05 L117.86 134.7 L115.24 132.45 L118.68 132.18 Z" fill="#F8DFA7" opacity=".9"/><path d="M160 120 L161.59 123.82 L165.71 124.15 L162.57 126.83 L163.53 130.85 L160 128.7 L156.47 130.85 L157.43 126.83 L154.29 124.15 L158.41 123.82 Z" fill="#F8DFA7" opacity=".9"/><path d="M200 129 L201.32 132.18 L204.76 132.45 L202.14 134.7 L202.94 138.05 L200 136.25 L197.06 138.05 L197.86 134.7 L195.24 132.45 L198.68 132.18 Z" fill="#F8DFA7" opacity=".9"/>
    <rect x="116" y="266" width="88" height="56" rx="6" fill="#9aa0c0" opacity=".55"/>
    <g>
    <path d="M137.64 286 C141.08 227.52 149.68 221.67 160 221.67 C170.32 221.67 178.92 227.52 182.36 286 Z" fill="#8f6fc0" opacity=".88"/>
    <circle cx="160" cy="210.32" r="10.32" fill="#EAC9A6"/>
  </g>
    <circle cx="130" cy="332" r="6" fill="#3A3350" opacity=".6"/><circle cx="190" cy="332" r="6" fill="#fff" opacity=".8" stroke="#6A5F77"/></g><rect x="46" y="100" width="228" height="256" rx="18" fill="none" stroke="rgba(255,255,255,.7)" stroke-width="1.5"/>
  <text x="160" y="402" text-anchor="middle" font-family="-apple-system,BlinkMacSystemFont,Segoe UI,sans-serif" font-size="14" font-weight="700" fill="#6A5F77">推进 · 意志</text>
  <text x="160" y="446" text-anchor="middle" font-family="-apple-system,BlinkMacSystemFont,Segoe UI,sans-serif" font-size="13" font-weight="700" fill="#9A78C9">大阿卡那</text>
  <text x="160" y="474" text-anchor="middle" font-family="-apple-system,BlinkMacSystemFont,Segoe UI,sans-serif" font-size="16" font-weight="700" fill="#5C5368">掌控</text>
  <defs>
    <linearGradient id="paper" x1="22" y1="18" x2="302" y2="510" gradientUnits="userSpaceOnUse">
      <stop stop-color="#FFFDF8"/><stop offset=".52" stop-color="#F8EEF7"/><stop offset="1" stop-color="#EAF4FF"/>
    </linearGradient>
    <linearGradient id="edge" x1="14" y1="10" x2="310" y2="510" gradientUnits="userSpaceOnUse">
      <stop stop-color="#FFF8E8"/><stop offset=".5" stop-color="#F8DFA7"/><stop offset="1" stop-color="#9A78C9"/>
    </linearGradient>
    <linearGradient id="sky" x1="0" y1="100" x2="0" y2="356" gradientUnits="userSpaceOnUse">
      <stop stop-color="#FBF6FF"/><stop offset="1" stop-color="#EAF1FF"/>
    </linearGradient>
  </defs>
</svg>