<svg width="320" height="520" viewBox="0 0 320 520" fill="none" xmlns="http://www.w3.org/2000/svg" role="img" aria-label="圣杯七">
  <rect x="10" y="10" width="300" height="500" rx="30" fill="url(#paper)" stroke="url(#edge)" stroke-width="2"/>
  <rect x="28" y="28" width="264" height="464" rx="22" fill="rgba(255,255,255,.30)" stroke="rgba(255,255,255,.7)"/>
  <circle cx="56" cy="74" r="22" fill="#6D8FD7" opacity=".14"/>
  <circle cx="264" cy="446" r="30" fill="#F8DFA7" opacity=".2"/>
  <text x="160" y="62" text-anchor="middle" font-family="-apple-system,BlinkMacSystemFont,Segoe UI,sans-serif" font-size="22" font-weight="700" fill="#2C2439">圣杯七</text>
  <text x="160" y="86" text-anchor="middle" font-family="-apple-system,BlinkMacSystemFont,Segoe UI,sans-serif" font-size="12" font-weight="600" fill="#7E718D">Seven of Cups</text>
  <clipPath id="win"><rect x="46" y="100" width="228" height="256" rx="18"/></clipPath>
  <g clip-path="url(#win)">
    <rect x="46" y="100" width="228" height="256" fill="url(#sky)"/>
    <circle cx="160" cy="112" r="150" fill="#6D8FD7" opacity=".05"/><path d="M46 296 L96 250 L138 284 L190 240 L244 288 L274 296 Z" fill="#b4b9d8" opacity="0.3"/><rect x="46" y="322" width="228" height="34" fill="#8fb3df" opacity="0.45"/><path d="M46 334 q24 -7 48 0 t48 0 t48 0 t48 0 t48 0" fill="none" stroke="#fff" stroke-width="1.4" opacity=".5"/><path d="M46 346 q24 -7 48 0 t48 0 t48 0 t48 0 t48 0" fill="none" stroke="#fff" stroke-width="1.4" opacity=".5"/><path d="M46 358 q24 -7 48 0 t48 0 t48 0 t48 0 t48 0" fill="none" stroke="#fff" stroke-width="1.4" opacity=".5"/><g fill="#6D8FD7" opacity=".85"><path d="M100.16 143.44 Q110 159.84 119.84 143.44 Z"/>
      <rect x="108.36 " y="153.28" width="3.28" height="8.2"/>
      <rect x="102.62" y="161.48" width="14.76" height="3.28" rx="2"/>
      <ellipse cx="110" cy="143.44" rx="9.84" ry="2.788" fill="#fff" opacity=".55"/></g><g fill="#6D8FD7" opacity=".85"><path d="M200.16 143.44 Q210 159.84 219.84 143.44 Z"/>
      <rect x="208.36 " y="153.28" width="3.28" height="8.2"/>
      <rect x="202.62" y="161.48" width="14.76" height="3.28" rx="2"/>
      <ellipse cx="210" cy="143.44" rx="9.84" ry="2.788" fill="#fff" opacity=".55"/></g><g fill="#6D8FD7" opacity=".85"><path d="M100.16 207.44 Q110 223.84 119.84 207.44 Z"/>
      <rect x="108.36 " y="217.28" width="3.28" height="8.2"/>
      <rect x="102.62" y="225.48" width="14.76" height="3.28" rx="2"/>
      <ellipse cx="110" cy="207.44" rx="9.84" ry="2.788" fill="#fff" opacity=".55"/></g><g fill="#6D8FD7" opacity=".85"><path d="M200.16 207.44 Q210 223.84 219.84 207.44 Z"/>
      <rect x="208.36 " y="217.28" width="3.28" height="8.2"/>
      <rect x="202.62" y="225.48" width="14.76" height="3.28" rx="2"/>
      <ellipse cx="210" cy="207.44" rx="9.84" ry="2.788" fill="#fff" opacity=".55"/></g><g fill="#6D8FD7" opacity=".85"><path d="M100.16 271.44 Q110 287.84 119.84 271.44 Z"/>
      <rect x="108.36 " y="281.28" width="3.28" height="8.2"/>
      <rect x="102.62" y="289.48" width="14.76" height="3.28" rx="2"/>
      <ellipse cx="110" cy="271.44" rx="9.84" ry="2.788" fill="#fff" opacity=".55"/></g><g fill="#6D8FD7" opacity=".85"><path d="M200.16 271.44 Q210 287.84 219.84 271.44 Z"/>
      <rect x="208.36 " y="281.28" width="3.28" height="8.2"/>
      <rect x="202.62" y="289.48" width="14.76" height="3.28" rx="2"/>
      <ellipse cx="210" cy="271.44" rx="9.84" ry="2.788" fill="#fff" opacity=".55"/></g><g fill="#6D8FD7" opacity=".85"><path d="M150.16 311.44 Q160 327.84 169.84 311.44 Z"/>
      <rect x="158.36 " y="321.28" width="3.28" height="8.2"/>
      <rect x="152.62" y="329.48" width="14.76" height="3.28" rx="2"/>
      <ellipse cx="160" cy="311.44" rx="9.84" ry="2.788" fill="#fff" opacity=".55"/></g></g><rect x="46" y="100" width="228" height="256" rx="18" fill="none" stroke="rgba(255,255,255,.7)" stroke-width="1.5"/>
  <text x="160" y="402" text-anchor="middle" font-family="-apple-system,BlinkMacSystemFont,Segoe UI,sans-serif" font-size="14" font-weight="700" fill="#6A5F77">幻想繁多 · 选择迷雾</text>
  <text x="160" y="446" text-anchor="middle" font-family="-apple-system,BlinkMacSystemFont,Segoe UI,sans-serif" font-size="13" font-weight="700" fill="#6D8FD7">小阿卡那</text>
  <text x="160" y="474" text-anchor="middle" font-family="-apple-system,BlinkMacSystemFont,Segoe UI,sans-serif" font-size="16" font-weight="700" fill="#5C5368">憧憬过载</text>
  <defs>
    <linearGradient id="paper" x1="22" y1="18" x2="302" y2="510" gradientUnits="userSpaceOnUse">
      <stop stop-color="#FFFDF8"/><stop offset=".52" stop-color="#F8EEF7"/><stop offset="1" stop-color="#EAF4FF"/>
    </linearGradient>
    <linearGradient id="edge" x1="14" y1="10" x2="310" y2="510" gradientUnits="userSpaceOnUse">
      <stop stop-color="#FFF8E8"/><stop offset=".5" stop-color="#F8DFA7"/><stop offset="1" stop-color="#6D8FD7"/>
    </linearGradient>
    <linearGradient id="sky" x1="0" y1="100" x2="0" y2="356" gradientUnits="userSpaceOnUse">
      <stop stop-color="#FBF6FF"/><stop offset="1" stop-color="#EAF1FF"/>
    </linearGradient>
  </defs>
</svg>