<svg width="320" height="520" viewBox="0 0 320 520" fill="none" xmlns="http://www.w3.org/2000/svg" role="img" aria-label="圣杯国王">
  <rect x="10" y="10" width="300" height="500" rx="30" fill="url(#paper)" stroke="url(#edge)" stroke-width="2"/>
  <rect x="28" y="28" width="264" height="464" rx="22" fill="rgba(255,255,255,.30)" stroke="rgba(255,255,255,.7)"/>
  <circle cx="56" cy="74" r="22" fill="#6D8FD7" opacity=".14"/>
  <circle cx="264" cy="446" r="30" fill="#F8DFA7" opacity=".2"/>
  <text x="160" y="62" text-anchor="middle" font-family="-apple-system,BlinkMacSystemFont,Segoe UI,sans-serif" font-size="22" font-weight="700" fill="#2C2439">圣杯国王</text>
  <text x="160" y="86" text-anchor="middle" font-family="-apple-system,BlinkMacSystemFont,Segoe UI,sans-serif" font-size="12" font-weight="600" fill="#7E718D">King of Cups</text>
  <clipPath id="win"><rect x="46" y="100" width="228" height="256" rx="18"/></clipPath>
  <g clip-path="url(#win)">
    <rect x="46" y="100" width="228" height="256" fill="url(#sky)"/>
    <circle cx="160" cy="112" r="150" fill="#6D8FD7" opacity=".05"/><path d="M46 296 L96 250 L138 284 L190 240 L244 288 L274 296 Z" fill="#b9b0d2" opacity="0.35"/><rect x="46" y="316" width="228" height="40" fill="#8fb3df" opacity="0.45"/><path d="M46 328 q24 -7 48 0 t48 0 t48 0 t48 0 t48 0" fill="none" stroke="#fff" stroke-width="1.4" opacity=".5"/><path d="M46 340 q24 -7 48 0 t48 0 t48 0 t48 0 t48 0" fill="none" stroke="#fff" stroke-width="1.4" opacity=".5"/><path d="M46 352 q24 -7 48 0 t48 0 t48 0 t48 0 t48 0" fill="none" stroke="#fff" stroke-width="1.4" opacity=".5"/><rect x="114" y="200" width="92" height="132" rx="8" fill="#b3a9cc" opacity=".45"/><rect x="114" y="190" width="92" height="18" rx="6" fill="#b3a9cc" opacity=".55"/><g>
    <path d="M129.84 322 C134.48 243.12 146.08 235.23 160 235.23 C173.92 235.23 185.52 243.12 190.16 322 Z" fill="#6D8FD7" opacity=".88"/>
    <circle cx="160" cy="219.92" r="13.92" fill="#EAC9A6"/>
  </g><path d="M146 214 l4 -16 5 12 5 -14 5 14 5 -12 4 16 Z" fill="#C99B52" opacity=".8"/><g fill="#6D8FD7" opacity=".85"><path d="M188.6 238.4 Q200 257.4 211.4 238.4 Z"/>
      <rect x="198.1 " y="249.8" width="3.8" height="9.5"/>
      <rect x="191.45" y="259.3" width="17.099999999999998" height="3.8" rx="2"/>
      <ellipse cx="200" cy="238.4" rx="11.399999999999999" ry="3.23" fill="#fff" opacity=".55"/></g></g><rect x="46" y="100" width="228" height="256" rx="18" fill="none" stroke="rgba(255,255,255,.7)" stroke-width="1.5"/>
  <text x="160" y="402" text-anchor="middle" font-family="-apple-system,BlinkMacSystemFont,Segoe UI,sans-serif" font-size="14" font-weight="700" fill="#6A5F77">情感稳重 · 成熟包容</text>
  <text x="160" y="446" text-anchor="middle" font-family="-apple-system,BlinkMacSystemFont,Segoe UI,sans-serif" font-size="13" font-weight="700" fill="#6D8FD7">小阿卡那</text>
  <text x="160" y="474" text-anchor="middle" font-family="-apple-system,BlinkMacSystemFont,Segoe UI,sans-serif" font-size="16" font-weight="700" fill="#5C5368">克制智慧</text>
  <defs>
    <linearGradient id="paper" x1="22" y1="18" x2="302" y2="510" gradientUnits="userSpaceOnUse">
      <stop stop-color="#FFFDF8"/><stop offset=".52" stop-color="#F8EEF7"/><stop offset="1" stop-color="#EAF4FF"/>
    </linearGradient>
    <linearGradient id="edge" x1="14" y1="10" x2="310" y2="510" gradientUnits="userSpaceOnUse">
      <stop stop-color="#FFF8E8"/><stop offset=".5" stop-color="#F8DFA7"/><stop offset="1" stop-color="#6D8FD7"/>
    </linearGradient>
    <linearGradient id="sky" x1="0" y1="100" x2="0" y2="356" gradientUnits="userSpaceOnUse">
      <stop stop-color="#FBF6FF"/><stop offset="1" stop-color="#EAF1FF"/>
    </linearGradient>
  </defs>
</svg>