<svg width="320" height="520" viewBox="0 0 320 520" fill="none" xmlns="http://www.w3.org/2000/svg" role="img" aria-label="圣杯五">
  <rect x="10" y="10" width="300" height="500" rx="30" fill="url(#paper)" stroke="url(#edge)" stroke-width="2"/>
  <rect x="28" y="28" width="264" height="464" rx="22" fill="rgba(255,255,255,.30)" stroke="rgba(255,255,255,.7)"/>
  <circle cx="56" cy="74" r="22" fill="#6D8FD7" opacity=".14"/>
  <circle cx="264" cy="446" r="30" fill="#F8DFA7" opacity=".2"/>
  <text x="160" y="62" text-anchor="middle" font-family="-apple-system,BlinkMacSystemFont,Segoe UI,sans-serif" font-size="22" font-weight="700" fill="#2C2439">圣杯五</text>
  <text x="160" y="86" text-anchor="middle" font-family="-apple-system,BlinkMacSystemFont,Segoe UI,sans-serif" font-size="12" font-weight="600" fill="#7E718D">Five of Cups</text>
  <clipPath id="win"><rect x="46" y="100" width="228" height="256" rx="18"/></clipPath>
  <g clip-path="url(#win)">
    <rect x="46" y="100" width="228" height="256" fill="url(#sky)"/>
    <circle cx="160" cy="112" r="150" fill="#6D8FD7" opacity=".05"/><path d="M46 296 L96 250 L138 284 L190 240 L244 288 L274 296 Z" fill="#b4b9d8" opacity="0.3"/><rect x="46" y="322" width="228" height="34" fill="#8fb3df" opacity="0.45"/><path d="M46 334 q24 -7 48 0 t48 0 t48 0 t48 0 t48 0" fill="none" stroke="#fff" stroke-width="1.4" opacity=".5"/><path d="M46 346 q24 -7 48 0 t48 0 t48 0 t48 0 t48 0" fill="none" stroke="#fff" stroke-width="1.4" opacity=".5"/><path d="M46 358 q24 -7 48 0 t48 0 t48 0 t48 0 t48 0" fill="none" stroke="#fff" stroke-width="1.4" opacity=".5"/><g fill="#6D8FD7" opacity=".85"><path d="M98.6 152.4 Q110 171.4 121.4 152.4 Z"/>
      <rect x="108.1 " y="163.8" width="3.8" height="9.5"/>
      <rect x="101.45" y="173.3" width="17.099999999999998" height="3.8" rx="2"/>
      <ellipse cx="110" cy="152.4" rx="11.399999999999999" ry="3.23" fill="#fff" opacity=".55"/></g><g fill="#6D8FD7" opacity=".85"><path d="M198.6 152.4 Q210 171.4 221.4 152.4 Z"/>
      <rect x="208.1 " y="163.8" width="3.8" height="9.5"/>
      <rect x="201.45" y="173.3" width="17.099999999999998" height="3.8" rx="2"/>
      <ellipse cx="210" cy="152.4" rx="11.399999999999999" ry="3.23" fill="#fff" opacity=".55"/></g><g fill="#6D8FD7" opacity=".85"><path d="M148.6 218.4 Q160 237.4 171.4 218.4 Z"/>
      <rect x="158.1 " y="229.8" width="3.8" height="9.5"/>
      <rect x="151.45" y="239.3" width="17.099999999999998" height="3.8" rx="2"/>
      <ellipse cx="160" cy="218.4" rx="11.399999999999999" ry="3.23" fill="#fff" opacity=".55"/></g><g fill="#6D8FD7" opacity=".85"><path d="M98.6 284.4 Q110 303.4 121.4 284.4 Z"/>
      <rect x="108.1 " y="295.8" width="3.8" height="9.5"/>
      <rect x="101.45" y="305.3" width="17.099999999999998" height="3.8" rx="2"/>
      <ellipse cx="110" cy="284.4" rx="11.399999999999999" ry="3.23" fill="#fff" opacity=".55"/></g><g fill="#6D8FD7" opacity=".85"><path d="M198.6 284.4 Q210 303.4 221.4 284.4 Z"/>
      <rect x="208.1 " y="295.8" width="3.8" height="9.5"/>
      <rect x="201.45" y="305.3" width="17.099999999999998" height="3.8" rx="2"/>
      <ellipse cx="210" cy="284.4" rx="11.399999999999999" ry="3.23" fill="#fff" opacity=".55"/></g></g><rect x="46" y="100" width="228" height="256" rx="18" fill="none" stroke="rgba(255,255,255,.7)" stroke-width="1.5"/>
  <text x="160" y="402" text-anchor="middle" font-family="-apple-system,BlinkMacSystemFont,Segoe UI,sans-serif" font-size="14" font-weight="700" fill="#6A5F77">失落遗憾 · 盯住空缺</text>
  <text x="160" y="446" text-anchor="middle" font-family="-apple-system,BlinkMacSystemFont,Segoe UI,sans-serif" font-size="13" font-weight="700" fill="#6D8FD7">小阿卡那</text>
  <text x="160" y="474" text-anchor="middle" font-family="-apple-system,BlinkMacSystemFont,Segoe UI,sans-serif" font-size="16" font-weight="700" fill="#5C5368">悲伤未散</text>
  <defs>
    <linearGradient id="paper" x1="22" y1="18" x2="302" y2="510" gradientUnits="userSpaceOnUse">
      <stop stop-color="#FFFDF8"/><stop offset=".52" stop-color="#F8EEF7"/><stop offset="1" stop-color="#EAF4FF"/>
    </linearGradient>
    <linearGradient id="edge" x1="14" y1="10" x2="310" y2="510" gradientUnits="userSpaceOnUse">
      <stop stop-color="#FFF8E8"/><stop offset=".5" stop-color="#F8DFA7"/><stop offset="1" stop-color="#6D8FD7"/>
    </linearGradient>
    <linearGradient id="sky" x1="0" y1="100" x2="0" y2="356" gradientUnits="userSpaceOnUse">
      <stop stop-color="#FBF6FF"/><stop offset="1" stop-color="#EAF1FF"/>
    </linearGradient>
  </defs>
</svg>