<svg width="320" height="520" viewBox="0 0 320 520" fill="none" xmlns="http://www.w3.org/2000/svg" role="img" aria-label="死神">
  <rect x="10" y="10" width="300" height="500" rx="30" fill="url(#paper)" stroke="url(#edge)" stroke-width="2"/>
  <rect x="28" y="28" width="264" height="464" rx="22" fill="rgba(255,255,255,.30)" stroke="rgba(255,255,255,.7)"/>
  <circle cx="56" cy="74" r="22" fill="#9A78C9" opacity=".14"/>
  <circle cx="264" cy="446" r="30" fill="#F8DFA7" opacity=".2"/>
  <text x="160" y="62" text-anchor="middle" font-family="-apple-system,BlinkMacSystemFont,Segoe UI,sans-serif" font-size="22" font-weight="700" fill="#2C2439">死神</text>
  <text x="160" y="86" text-anchor="middle" font-family="-apple-system,BlinkMacSystemFont,Segoe UI,sans-serif" font-size="12" font-weight="600" fill="#7E718D">Death</text>
  <clipPath id="win"><rect x="46" y="100" width="228" height="256" rx="18"/></clipPath>
  <g clip-path="url(#win)">
    <rect x="46" y="100" width="228" height="256" fill="url(#sky)"/>
    <circle cx="160" cy="112" r="150" fill="#9A78C9" opacity=".05"/><rect x="68" y="240" width="24" height="56" fill="#9aa0c0" opacity=".55"/><path d="M66 240 L80 224 L94 240 Z" fill="#9aa0c0" opacity=".6"/><rect x="228" y="240" width="24" height="56" fill="#9aa0c0" opacity=".55"/><path d="M226 240 L240 224 L254 240 Z" fill="#9aa0c0" opacity=".6"/><g opacity=".92"><line x1="177" y1="232" x2="190" y2="232" stroke="#F8DFA7" stroke-width="3" stroke-linecap="round"/><line x1="174.72" y1="240.5" x2="185.98" y2="247" stroke="#F8DFA7" stroke-width="3" stroke-linecap="round"/><line x1="168.5" y1="246.72" x2="175" y2="257.98" stroke="#F8DFA7" stroke-width="3" stroke-linecap="round"/><line x1="160" y1="249" x2="160" y2="262" stroke="#F8DFA7" stroke-width="3" stroke-linecap="round"/><line x1="151.5" y1="246.72" x2="145" y2="257.98" stroke="#F8DFA7" stroke-width="3" stroke-linecap="round"/><line x1="145.28" y1="240.5" x2="134.02" y2="247" stroke="#F8DFA7" stroke-width="3" stroke-linecap="round"/><line x1="143" y1="232" x2="130" y2="232" stroke="#F8DFA7" stroke-width="3" stroke-linecap="round"/><line x1="145.28" y1="223.5" x2="134.02" y2="217" stroke="#F8DFA7" stroke-width="3" stroke-linecap="round"/><line x1="151.5" y1="217.28" x2="145" y2="206.02" stroke="#F8DFA7" stroke-width="3" stroke-linecap="round"/><line x1="160" y1="215" x2="160" y2="202" stroke="#F8DFA7" stroke-width="3" stroke-linecap="round"/><line x1="168.5" y1="217.28" x2="175" y2="206.02" stroke="#F8DFA7" stroke-width="3" stroke-linecap="round"/><line x1="174.72" y1="223.5" x2="185.98" y2="217" stroke="#F8DFA7" stroke-width="3" stroke-linecap="round"/><circle cx="160" cy="232" r="12" fill="#F8DFA7" opacity=".5"/><circle cx="160" cy="232" r="12" fill="none" stroke="#F8DFA7" stroke-width="2"/></g><rect x="46" y="296" width="228" height="60" fill="#cfc6b0" opacity="0.45"/>
    <ellipse cx="160" cy="318" rx="58" ry="14" fill="#fff" opacity=".55"/>
    <g>
    <path d="M135.8 300 C138.6 252.4 145.6 247.64 154 247.64 C162.4 247.64 169.4 252.4 172.2 300 Z" fill="#6f6a86" opacity=".88"/>
    <circle cx="154" cy="238.4" r="8.4" fill="#EAC9A6"/>
  </g>
    <circle cx="154" cy="246" r="11" fill="#f2eee6"/><circle cx="150" cy="244" r="2" fill="#3A3350"/><circle cx="158" cy="244" r="2" fill="#3A3350"/>
    <line x1="194" y1="300" x2="194" y2="206" stroke="#C99B52" stroke-width="3"/><path d="M194 208 h26 v18 h-26 Z" fill="#fff" opacity=".8" stroke="#6A5F77"/></g><rect x="46" y="100" width="228" height="256" rx="18" fill="none" stroke="rgba(255,255,255,.7)" stroke-width="1.5"/>
  <text x="160" y="402" text-anchor="middle" font-family="-apple-system,BlinkMacSystemFont,Segoe UI,sans-serif" font-size="14" font-weight="700" fill="#6A5F77">结束 · 转化</text>
  <text x="160" y="446" text-anchor="middle" font-family="-apple-system,BlinkMacSystemFont,Segoe UI,sans-serif" font-size="13" font-weight="700" fill="#9A78C9">大阿卡那</text>
  <text x="160" y="474" text-anchor="middle" font-family="-apple-system,BlinkMacSystemFont,Segoe UI,sans-serif" font-size="16" font-weight="700" fill="#5C5368">更新</text>
  <defs>
    <linearGradient id="paper" x1="22" y1="18" x2="302" y2="510" gradientUnits="userSpaceOnUse">
      <stop stop-color="#FFFDF8"/><stop offset=".52" stop-color="#F8EEF7"/><stop offset="1" stop-color="#EAF4FF"/>
    </linearGradient>
    <linearGradient id="edge" x1="14" y1="10" x2="310" y2="510" gradientUnits="userSpaceOnUse">
      <stop stop-color="#FFF8E8"/><stop offset=".5" stop-color="#F8DFA7"/><stop offset="1" stop-color="#9A78C9"/>
    </linearGradient>
    <linearGradient id="sky" x1="0" y1="100" x2="0" y2="356" gradientUnits="userSpaceOnUse">
      <stop stop-color="#FBF6FF"/><stop offset="1" stop-color="#EAF1FF"/>
    </linearGradient>
  </defs>
</svg>