<svg width="320" height="520" viewBox="0 0 320 520" fill="none" xmlns="http://www.w3.org/2000/svg" role="img" aria-label="恶魔">
  <rect x="10" y="10" width="300" height="500" rx="30" fill="url(#paper)" stroke="url(#edge)" stroke-width="2"/>
  <rect x="28" y="28" width="264" height="464" rx="22" fill="rgba(255,255,255,.30)" stroke="rgba(255,255,255,.7)"/>
  <circle cx="56" cy="74" r="22" fill="#9A78C9" opacity=".14"/>
  <circle cx="264" cy="446" r="30" fill="#F8DFA7" opacity=".2"/>
  <text x="160" y="62" text-anchor="middle" font-family="-apple-system,BlinkMacSystemFont,Segoe UI,sans-serif" font-size="22" font-weight="700" fill="#2C2439">恶魔</text>
  <text x="160" y="86" text-anchor="middle" font-family="-apple-system,BlinkMacSystemFont,Segoe UI,sans-serif" font-size="12" font-weight="600" fill="#7E718D">The Devil</text>
  <clipPath id="win"><rect x="46" y="100" width="228" height="256" rx="18"/></clipPath>
  <g clip-path="url(#win)">
    <rect x="46" y="100" width="228" height="256" fill="url(#sky)"/>
    <circle cx="160" cy="112" r="150" fill="#9A78C9" opacity=".05"/><rect x="46" y="100" width="228" height="256" fill="#2c2440" opacity=".18"/><rect x="46" y="296" width="228" height="60" fill="#5b5170" opacity="0.4"/>
    <g>
    <path d="M135.04 268 C138.88 202.72 148.48 196.19 160 196.19 C171.52 196.19 181.12 202.72 184.96 268 Z" fill="#6a5b86" opacity=".88"/>
    <circle cx="160" cy="183.52" r="11.52" fill="#EAC9A6"/>
  </g>
    <path d="M148 188 l-8 -16 M172 188 l8 -16" stroke="#3A3350" stroke-width="3"/>
    <g>
    <path d="M95.52 330 C97.44 297.36 102.24 294.1 108 294.1 C113.76 294.1 118.56 297.36 120.48 330 Z" fill="#8a7fa0" opacity=".88"/>
    <circle cx="108" cy="287.76" r="5.76" fill="#EAC9A6"/>
  </g><g>
    <path d="M199.52 330 C201.44 297.36 206.24 294.1 212 294.1 C217.76 294.1 222.56 297.36 224.48 330 Z" fill="#8a7fa0" opacity=".88"/>
    <circle cx="212" cy="287.76" r="5.76" fill="#EAC9A6"/>
  </g>
    <path d="M160 300 q-26 8 -50 22 M160 300 q26 8 50 22" fill="none" stroke="#3A3350" stroke-width="1.6" opacity=".6"/></g><rect x="46" y="100" width="228" height="256" rx="18" fill="none" stroke="rgba(255,255,255,.7)" stroke-width="1.5"/>
  <text x="160" y="402" text-anchor="middle" font-family="-apple-system,BlinkMacSystemFont,Segoe UI,sans-serif" font-size="14" font-weight="700" fill="#6A5F77">执念 · 束缚</text>
  <text x="160" y="446" text-anchor="middle" font-family="-apple-system,BlinkMacSystemFont,Segoe UI,sans-serif" font-size="13" font-weight="700" fill="#9A78C9">大阿卡那</text>
  <text x="160" y="474" text-anchor="middle" font-family="-apple-system,BlinkMacSystemFont,Segoe UI,sans-serif" font-size="16" font-weight="700" fill="#5C5368">诱惑</text>
  <defs>
    <linearGradient id="paper" x1="22" y1="18" x2="302" y2="510" gradientUnits="userSpaceOnUse">
      <stop stop-color="#FFFDF8"/><stop offset=".52" stop-color="#F8EEF7"/><stop offset="1" stop-color="#EAF4FF"/>
    </linearGradient>
    <linearGradient id="edge" x1="14" y1="10" x2="310" y2="510" gradientUnits="userSpaceOnUse">
      <stop stop-color="#FFF8E8"/><stop offset=".5" stop-color="#F8DFA7"/><stop offset="1" stop-color="#9A78C9"/>
    </linearGradient>
    <linearGradient id="sky" x1="0" y1="100" x2="0" y2="356" gradientUnits="userSpaceOnUse">
      <stop stop-color="#FBF6FF"/><stop offset="1" stop-color="#EAF1FF"/>
    </linearGradient>
  </defs>
</svg>