<svg width="320" height="520" viewBox="0 0 320 520" fill="none" xmlns="http://www.w3.org/2000/svg" role="img" aria-label="皇后">
  <rect x="10" y="10" width="300" height="500" rx="30" fill="url(#paper)" stroke="url(#edge)" stroke-width="2"/>
  <rect x="28" y="28" width="264" height="464" rx="22" fill="rgba(255,255,255,.34)" stroke="rgba(255,255,255,.72)"/>
  <circle cx="56" cy="74" r="22" fill="#9A78C9" opacity=".14"/>
  <circle cx="264" cy="446" r="30" fill="#F8DFA7" opacity=".18"/>
  <text x="160" y="62" text-anchor="middle" font-family="-apple-system,BlinkMacSystemFont,Segoe UI,sans-serif" font-size="22" font-weight="700" fill="#2C2439">皇后</text>
  <text x="160" y="86" text-anchor="middle" font-family="-apple-system,BlinkMacSystemFont,Segoe UI,sans-serif" font-size="12" font-weight="600" fill="#7E718D">The Empress</text>
  
  <text x="160" y="180" text-anchor="middle" font-family="Georgia,serif" font-size="42" fill="#9A78C9" opacity=".28">III</text>
  <circle cx="160" cy="252" r="90" fill="#9A78C9" opacity=".08"/>
  <circle cx="160" cy="252" r="68" stroke="#9A78C9" stroke-width="2" opacity=".45"/>
  <path d="M92 252c36-48 100-48 136 0-36 48-100 48-136 0Z" stroke="#C99B52" stroke-width="2" opacity=".62"/>
  <text x="160" y="282" text-anchor="middle" font-family="Georgia,serif" font-size="88" fill="#9A78C9">✿</text>
  <path d="M160 126l8 20 22 2-17 14 5 22-18-12-18 12 5-22-17-14 22-2 8-20Z" fill="#C99B52" opacity=".6"/>
  <text x="160" y="386" text-anchor="middle" font-family="-apple-system,BlinkMacSystemFont,Segoe UI,sans-serif" font-size="14" font-weight="700" fill="#6A5F77">丰盛 · 魅力</text>
  <text x="160" y="448" text-anchor="middle" font-family="-apple-system,BlinkMacSystemFont,Segoe UI,sans-serif" font-size="13" font-weight="700" fill="#9A78C9">大阿卡那</text>
  <text x="160" y="474" text-anchor="middle" font-family="-apple-system,BlinkMacSystemFont,Segoe UI,sans-serif" font-size="16" font-weight="700" fill="#5C5368">滋养</text>
  <defs>
    <linearGradient id="paper" x1="22" y1="18" x2="302" y2="510" gradientUnits="userSpaceOnUse">
      <stop stop-color="#FFFDF8"/>
      <stop offset=".52" stop-color="#F8EEF7"/>
      <stop offset="1" stop-color="#EAF4FF"/>
    </linearGradient>
    <linearGradient id="edge" x1="14" y1="10" x2="310" y2="510" gradientUnits="userSpaceOnUse">
      <stop stop-color="#FFF8E8"/>
      <stop offset=".5" stop-color="#F8DFA7"/>
      <stop offset="1" stop-color="#9A78C9"/>
    </linearGradient>
  </defs>
</svg>