<svg width="320" height="520" viewBox="0 0 320 520" fill="none" xmlns="http://www.w3.org/2000/svg" role="img" aria-label="愚者">
  <rect x="10" y="10" width="300" height="500" rx="30" fill="url(#paper)" stroke="url(#edge)" stroke-width="2"/>
  <rect x="28" y="28" width="264" height="464" rx="22" fill="rgba(255,255,255,.30)" stroke="rgba(255,255,255,.7)"/>
  <circle cx="56" cy="74" r="22" fill="#9A78C9" opacity=".14"/>
  <circle cx="264" cy="446" r="30" fill="#F8DFA7" opacity=".2"/>
  <text x="160" y="62" text-anchor="middle" font-family="-apple-system,BlinkMacSystemFont,Segoe UI,sans-serif" font-size="22" font-weight="700" fill="#2C2439">愚者</text>
  <text x="160" y="86" text-anchor="middle" font-family="-apple-system,BlinkMacSystemFont,Segoe UI,sans-serif" font-size="12" font-weight="600" fill="#7E718D">The Fool</text>
  <clipPath id="win"><rect x="46" y="100" width="228" height="256" rx="18"/></clipPath>
  <g clip-path="url(#win)">
    <rect x="46" y="100" width="228" height="256" fill="url(#sky)"/>
    <circle cx="160" cy="112" r="150" fill="#9A78C9" opacity=".05"/><path d="M46 296 L96 250 L138 284 L190 240 L244 288 L274 296 Z" fill="#c9b6e6" opacity="0.4"/><rect x="46" y="296" width="228" height="60" fill="#e6dcc4" opacity="0.5"/><g opacity=".92"><line x1="261" y1="140" x2="274" y2="140" stroke="#F8DFA7" stroke-width="3" stroke-linecap="round"/><line x1="258.19" y1="150.5" x2="269.44" y2="157" stroke="#F8DFA7" stroke-width="3" stroke-linecap="round"/><line x1="250.5" y1="158.19" x2="257" y2="169.44" stroke="#F8DFA7" stroke-width="3" stroke-linecap="round"/><line x1="240" y1="161" x2="240" y2="174" stroke="#F8DFA7" stroke-width="3" stroke-linecap="round"/><line x1="229.5" y1="158.19" x2="223" y2="169.44" stroke="#F8DFA7" stroke-width="3" stroke-linecap="round"/><line x1="221.81" y1="150.5" x2="210.56" y2="157" stroke="#F8DFA7" stroke-width="3" stroke-linecap="round"/><line x1="219" y1="140" x2="206" y2="140" stroke="#F8DFA7" stroke-width="3" stroke-linecap="round"/><line x1="221.81" y1="129.5" x2="210.56" y2="123" stroke="#F8DFA7" stroke-width="3" stroke-linecap="round"/><line x1="229.5" y1="121.81" x2="223" y2="110.56" stroke="#F8DFA7" stroke-width="3" stroke-linecap="round"/><line x1="240" y1="119" x2="240" y2="106" stroke="#F8DFA7" stroke-width="3" stroke-linecap="round"/><line x1="250.5" y1="121.81" x2="257" y2="110.56" stroke="#F8DFA7" stroke-width="3" stroke-linecap="round"/><line x1="258.19" y1="129.5" x2="269.44" y2="123" stroke="#F8DFA7" stroke-width="3" stroke-linecap="round"/><circle cx="240" cy="140" r="16" fill="#F8DFA7" opacity=".5"/><circle cx="240" cy="140" r="16" fill="none" stroke="#F8DFA7" stroke-width="2"/></g>
    <g>
    <path d="M122.8 300 C127.6 218.4 139.6 210.24 154 210.24 C168.4 210.24 180.4 218.4 185.2 300 Z" fill="#9A78C9" opacity=".88"/>
    <circle cx="154" cy="194.4" r="14.4" fill="#EAC9A6"/>
  </g>
    <line x1="194" y1="300" x2="214" y2="200" stroke="#C99B52" stroke-width="4" stroke-linecap="round"/>
    <circle cx="216" cy="196" r="9" fill="#C99B52" opacity=".7"/>
    <circle cx="120" cy="312" r="10" fill="#fff" opacity=".8"/><circle cx="120" cy="312" r="10" fill="none" stroke="#6A5F77" stroke-width="1.5"/>
    <path d="M160 141 L162.35 146.76 L168.56 147.22 L163.8 151.24 L165.29 157.28 L160 154 L154.71 157.28 L156.2 151.24 L151.44 147.22 L157.65 146.76 Z" fill="#F8DFA7"/></g><rect x="46" y="100" width="228" height="256" rx="18" fill="none" stroke="rgba(255,255,255,.7)" stroke-width="1.5"/>
  <text x="160" y="402" text-anchor="middle" font-family="-apple-system,BlinkMacSystemFont,Segoe UI,sans-serif" font-size="14" font-weight="700" fill="#6A5F77">新的开始 · 自由</text>
  <text x="160" y="446" text-anchor="middle" font-family="-apple-system,BlinkMacSystemFont,Segoe UI,sans-serif" font-size="13" font-weight="700" fill="#9A78C9">大阿卡那</text>
  <text x="160" y="474" text-anchor="middle" font-family="-apple-system,BlinkMacSystemFont,Segoe UI,sans-serif" font-size="16" font-weight="700" fill="#5C5368">冒险</text>
  <defs>
    <linearGradient id="paper" x1="22" y1="18" x2="302" y2="510" gradientUnits="userSpaceOnUse">
      <stop stop-color="#FFFDF8"/><stop offset=".52" stop-color="#F8EEF7"/><stop offset="1" stop-color="#EAF4FF"/>
    </linearGradient>
    <linearGradient id="edge" x1="14" y1="10" x2="310" y2="510" gradientUnits="userSpaceOnUse">
      <stop stop-color="#FFF8E8"/><stop offset=".5" stop-color="#F8DFA7"/><stop offset="1" stop-color="#9A78C9"/>
    </linearGradient>
    <linearGradient id="sky" x1="0" y1="100" x2="0" y2="356" gradientUnits="userSpaceOnUse">
      <stop stop-color="#FBF6FF"/><stop offset="1" stop-color="#EAF1FF"/>
    </linearGradient>
  </defs>
</svg>