<svg width="320" height="520" viewBox="0 0 320 520" fill="none" xmlns="http://www.w3.org/2000/svg" role="img" aria-label="教皇">
  <rect x="10" y="10" width="300" height="500" rx="30" fill="url(#paper)" stroke="url(#edge)" stroke-width="2"/>
  <rect x="28" y="28" width="264" height="464" rx="22" fill="rgba(255,255,255,.30)" stroke="rgba(255,255,255,.7)"/>
  <circle cx="56" cy="74" r="22" fill="#9A78C9" opacity=".14"/>
  <circle cx="264" cy="446" r="30" fill="#F8DFA7" opacity=".2"/>
  <text x="160" y="62" text-anchor="middle" font-family="-apple-system,BlinkMacSystemFont,Segoe UI,sans-serif" font-size="22" font-weight="700" fill="#2C2439">教皇</text>
  <text x="160" y="86" text-anchor="middle" font-family="-apple-system,BlinkMacSystemFont,Segoe UI,sans-serif" font-size="12" font-weight="600" fill="#7E718D">The Hierophant</text>
  <clipPath id="win"><rect x="46" y="100" width="228" height="256" rx="18"/></clipPath>
  <g clip-path="url(#win)">
    <rect x="46" y="100" width="228" height="256" fill="url(#sky)"/>
    <circle cx="160" cy="112" r="150" fill="#9A78C9" opacity=".05"/><rect x="52" y="126" width="20" height="216" fill="#b9aed6" opacity=".5"/>
  <rect x="248" y="126" width="20" height="216" fill="#b9aed6" opacity=".5"/><rect x="46" y="296" width="228" height="60" fill="#d8cdb2" opacity="0.5"/>
    <g>
    <path d="M127.24 296 C132.28 210.32 144.88 201.75 160 201.75 C175.12 201.75 187.72 210.32 192.76 296 Z" fill="#b86a72" opacity=".88"/>
    <circle cx="160" cy="185.12" r="15.12" fill="#EAC9A6"/>
  </g>
    <path d="M150 176 v-18 M170 176 v-18 M160 176 v-22" stroke="#F8DFA7" stroke-width="3"/>
    <g>
    <path d="M93.44 326 C95.68 287.92 101.28 284.11 108 284.11 C114.72 284.11 120.32 287.92 122.56 326 Z" fill="#9aa0c0" opacity=".88"/>
    <circle cx="108" cy="276.72" r="6.72" fill="#EAC9A6"/>
  </g><g>
    <path d="M197.44 326 C199.68 287.92 205.28 284.11 212 284.11 C218.72 284.11 224.32 287.92 226.56 326 Z" fill="#9aa0c0" opacity=".88"/>
    <circle cx="212" cy="276.72" r="6.72" fill="#EAC9A6"/>
  </g></g><rect x="46" y="100" width="228" height="256" rx="18" fill="none" stroke="rgba(255,255,255,.7)" stroke-width="1.5"/>
  <text x="160" y="402" text-anchor="middle" font-family="-apple-system,BlinkMacSystemFont,Segoe UI,sans-serif" font-size="14" font-weight="700" fill="#6A5F77">承诺 · 传统</text>
  <text x="160" y="446" text-anchor="middle" font-family="-apple-system,BlinkMacSystemFont,Segoe UI,sans-serif" font-size="13" font-weight="700" fill="#9A78C9">大阿卡那</text>
  <text x="160" y="474" text-anchor="middle" font-family="-apple-system,BlinkMacSystemFont,Segoe UI,sans-serif" font-size="16" font-weight="700" fill="#5C5368">学习</text>
  <defs>
    <linearGradient id="paper" x1="22" y1="18" x2="302" y2="510" gradientUnits="userSpaceOnUse">
      <stop stop-color="#FFFDF8"/><stop offset=".52" stop-color="#F8EEF7"/><stop offset="1" stop-color="#EAF4FF"/>
    </linearGradient>
    <linearGradient id="edge" x1="14" y1="10" x2="310" y2="510" gradientUnits="userSpaceOnUse">
      <stop stop-color="#FFF8E8"/><stop offset=".5" stop-color="#F8DFA7"/><stop offset="1" stop-color="#9A78C9"/>
    </linearGradient>
    <linearGradient id="sky" x1="0" y1="100" x2="0" y2="356" gradientUnits="userSpaceOnUse">
      <stop stop-color="#FBF6FF"/><stop offset="1" stop-color="#EAF1FF"/>
    </linearGradient>
  </defs>
</svg>