<svg width="320" height="520" viewBox="0 0 320 520" fill="none" xmlns="http://www.w3.org/2000/svg" role="img" aria-label="审判">
  <rect x="10" y="10" width="300" height="500" rx="30" fill="url(#paper)" stroke="url(#edge)" stroke-width="2"/>
  <rect x="28" y="28" width="264" height="464" rx="22" fill="rgba(255,255,255,.30)" stroke="rgba(255,255,255,.7)"/>
  <circle cx="56" cy="74" r="22" fill="#9A78C9" opacity=".14"/>
  <circle cx="264" cy="446" r="30" fill="#F8DFA7" opacity=".2"/>
  <text x="160" y="62" text-anchor="middle" font-family="-apple-system,BlinkMacSystemFont,Segoe UI,sans-serif" font-size="22" font-weight="700" fill="#2C2439">审判</text>
  <text x="160" y="86" text-anchor="middle" font-family="-apple-system,BlinkMacSystemFont,Segoe UI,sans-serif" font-size="12" font-weight="600" fill="#7E718D">Judgement</text>
  <clipPath id="win"><rect x="46" y="100" width="228" height="256" rx="18"/></clipPath>
  <g clip-path="url(#win)">
    <rect x="46" y="100" width="228" height="256" fill="url(#sky)"/>
    <circle cx="160" cy="112" r="150" fill="#9A78C9" opacity=".05"/><path d="M46 296 L96 250 L138 284 L190 240 L244 288 L274 296 Z" fill="#a7adcf" opacity="0.4"/><rect x="46" y="296" width="228" height="60" fill="#cfc6b0" opacity="0.4"/>
    <g>
    <path d="M141.8 200 C144.6 152.4 151.6 147.64 160 147.64 C168.4 147.64 175.4 152.4 178.2 200 Z" fill="#cf8aa6" opacity=".88"/>
    <circle cx="160" cy="138.4" r="8.4" fill="#EAC9A6"/>
  </g>
    <line x1="176" y1="180" x2="204" y2="166" stroke="#C99B52" stroke-width="4" stroke-linecap="round"/>
    <g>
    <path d="M103 332 C105 298 110 294.6 116 294.6 C122 294.6 127 298 129 332 Z" fill="#9aa0c0" opacity=".88"/>
    <circle cx="116" cy="288" r="6" fill="#EAC9A6"/>
  </g><g>
    <path d="M145.96 338 C148.12 301.28 153.52 297.61 160 297.61 C166.48 297.61 171.88 301.28 174.04 338 Z" fill="#9aa0c0" opacity=".88"/>
    <circle cx="160" cy="290.48" r="6.48" fill="#EAC9A6"/>
  </g><g>
    <path d="M191 332 C193 298 198 294.6 204 294.6 C210 294.6 215 298 217 332 Z" fill="#9aa0c0" opacity=".88"/>
    <circle cx="204" cy="288" r="6" fill="#EAC9A6"/>
  </g></g><rect x="46" y="100" width="228" height="256" rx="18" fill="none" stroke="rgba(255,255,255,.7)" stroke-width="1.5"/>
  <text x="160" y="402" text-anchor="middle" font-family="-apple-system,BlinkMacSystemFont,Segoe UI,sans-serif" font-size="14" font-weight="700" fill="#6A5F77">觉醒 · 回应</text>
  <text x="160" y="446" text-anchor="middle" font-family="-apple-system,BlinkMacSystemFont,Segoe UI,sans-serif" font-size="13" font-weight="700" fill="#9A78C9">大阿卡那</text>
  <text x="160" y="474" text-anchor="middle" font-family="-apple-system,BlinkMacSystemFont,Segoe UI,sans-serif" font-size="16" font-weight="700" fill="#5C5368">重生</text>
  <defs>
    <linearGradient id="paper" x1="22" y1="18" x2="302" y2="510" gradientUnits="userSpaceOnUse">
      <stop stop-color="#FFFDF8"/><stop offset=".52" stop-color="#F8EEF7"/><stop offset="1" stop-color="#EAF4FF"/>
    </linearGradient>
    <linearGradient id="edge" x1="14" y1="10" x2="310" y2="510" gradientUnits="userSpaceOnUse">
      <stop stop-color="#FFF8E8"/><stop offset=".5" stop-color="#F8DFA7"/><stop offset="1" stop-color="#9A78C9"/>
    </linearGradient>
    <linearGradient id="sky" x1="0" y1="100" x2="0" y2="356" gradientUnits="userSpaceOnUse">
      <stop stop-color="#FBF6FF"/><stop offset="1" stop-color="#EAF1FF"/>
    </linearGradient>
  </defs>
</svg>