<svg width="320" height="520" viewBox="0 0 320 520" fill="none" xmlns="http://www.w3.org/2000/svg" role="img" aria-label="恋人">
  <rect x="10" y="10" width="300" height="500" rx="30" fill="url(#paper)" stroke="url(#edge)" stroke-width="2"/>
  <rect x="28" y="28" width="264" height="464" rx="22" fill="rgba(255,255,255,.30)" stroke="rgba(255,255,255,.7)"/>
  <circle cx="56" cy="74" r="22" fill="#9A78C9" opacity=".14"/>
  <circle cx="264" cy="446" r="30" fill="#F8DFA7" opacity=".2"/>
  <text x="160" y="62" text-anchor="middle" font-family="-apple-system,BlinkMacSystemFont,Segoe UI,sans-serif" font-size="22" font-weight="700" fill="#2C2439">恋人</text>
  <text x="160" y="86" text-anchor="middle" font-family="-apple-system,BlinkMacSystemFont,Segoe UI,sans-serif" font-size="12" font-weight="600" fill="#7E718D">The Lovers</text>
  <clipPath id="win"><rect x="46" y="100" width="228" height="256" rx="18"/></clipPath>
  <g clip-path="url(#win)">
    <rect x="46" y="100" width="228" height="256" fill="url(#sky)"/>
    <circle cx="160" cy="112" r="150" fill="#9A78C9" opacity=".05"/><g opacity=".92"><line x1="183" y1="140" x2="196" y2="140" stroke="#F8DFA7" stroke-width="3" stroke-linecap="round"/><line x1="179.92" y1="151.5" x2="191.18" y2="158" stroke="#F8DFA7" stroke-width="3" stroke-linecap="round"/><line x1="171.5" y1="159.92" x2="178" y2="171.18" stroke="#F8DFA7" stroke-width="3" stroke-linecap="round"/><line x1="160" y1="163" x2="160" y2="176" stroke="#F8DFA7" stroke-width="3" stroke-linecap="round"/><line x1="148.5" y1="159.92" x2="142" y2="171.18" stroke="#F8DFA7" stroke-width="3" stroke-linecap="round"/><line x1="140.08" y1="151.5" x2="128.82" y2="158" stroke="#F8DFA7" stroke-width="3" stroke-linecap="round"/><line x1="137" y1="140" x2="124" y2="140" stroke="#F8DFA7" stroke-width="3" stroke-linecap="round"/><line x1="140.08" y1="128.5" x2="128.82" y2="122" stroke="#F8DFA7" stroke-width="3" stroke-linecap="round"/><line x1="148.5" y1="120.08" x2="142" y2="108.82" stroke="#F8DFA7" stroke-width="3" stroke-linecap="round"/><line x1="160" y1="117" x2="160" y2="104" stroke="#F8DFA7" stroke-width="3" stroke-linecap="round"/><line x1="171.5" y1="120.08" x2="178" y2="108.82" stroke="#F8DFA7" stroke-width="3" stroke-linecap="round"/><line x1="179.92" y1="128.5" x2="191.18" y2="122" stroke="#F8DFA7" stroke-width="3" stroke-linecap="round"/><circle cx="160" cy="140" r="18" fill="#F8DFA7" opacity=".5"/><circle cx="160" cy="140" r="18" fill="none" stroke="#F8DFA7" stroke-width="2"/></g><rect x="46" y="296" width="228" height="60" fill="#cfe0bf" opacity="0.5"/>
    <path d="M136 158 q24 -22 48 0" fill="none" stroke="#F8DFA7" stroke-width="3" opacity=".8"/>
    <g>
    <path d="M92.96 312 C97.12 241.28 107.52 234.21 120 234.21 C132.48 234.21 142.88 241.28 147.04 312 Z" fill="#7e8bd0" opacity=".88"/>
    <circle cx="120" cy="220.48" r="12.48" fill="#EAC9A6"/>
  </g><g>
    <path d="M172.96 312 C177.12 241.28 187.52 234.21 200 234.21 C212.48 234.21 222.88 241.28 227.04 312 Z" fill="#cf8aa6" opacity=".88"/>
    <circle cx="200" cy="220.48" r="12.48" fill="#EAC9A6"/>
  </g></g><rect x="46" y="100" width="228" height="256" rx="18" fill="none" stroke="rgba(255,255,255,.7)" stroke-width="1.5"/>
  <text x="160" y="402" text-anchor="middle" font-family="-apple-system,BlinkMacSystemFont,Segoe UI,sans-serif" font-size="14" font-weight="700" fill="#6A5F77">吸引 · 选择</text>
  <text x="160" y="446" text-anchor="middle" font-family="-apple-system,BlinkMacSystemFont,Segoe UI,sans-serif" font-size="13" font-weight="700" fill="#9A78C9">大阿卡那</text>
  <text x="160" y="474" text-anchor="middle" font-family="-apple-system,BlinkMacSystemFont,Segoe UI,sans-serif" font-size="16" font-weight="700" fill="#5C5368">和谐</text>
  <defs>
    <linearGradient id="paper" x1="22" y1="18" x2="302" y2="510" gradientUnits="userSpaceOnUse">
      <stop stop-color="#FFFDF8"/><stop offset=".52" stop-color="#F8EEF7"/><stop offset="1" stop-color="#EAF4FF"/>
    </linearGradient>
    <linearGradient id="edge" x1="14" y1="10" x2="310" y2="510" gradientUnits="userSpaceOnUse">
      <stop stop-color="#FFF8E8"/><stop offset=".5" stop-color="#F8DFA7"/><stop offset="1" stop-color="#9A78C9"/>
    </linearGradient>
    <linearGradient id="sky" x1="0" y1="100" x2="0" y2="356" gradientUnits="userSpaceOnUse">
      <stop stop-color="#FBF6FF"/><stop offset="1" stop-color="#EAF1FF"/>
    </linearGradient>
  </defs>
</svg>