<svg width="320" height="520" viewBox="0 0 320 520" fill="none" xmlns="http://www.w3.org/2000/svg" role="img" aria-label="星币六">
  <rect x="10" y="10" width="300" height="500" rx="30" fill="url(#paper)" stroke="url(#edge)" stroke-width="2"/>
  <rect x="28" y="28" width="264" height="464" rx="22" fill="rgba(255,255,255,.34)" stroke="rgba(255,255,255,.72)"/>
  <circle cx="56" cy="74" r="22" fill="#B38A45" opacity=".14"/>
  <circle cx="264" cy="446" r="30" fill="#F8DFA7" opacity=".18"/>
  <text x="160" y="62" text-anchor="middle" font-family="-apple-system,BlinkMacSystemFont,Segoe UI,sans-serif" font-size="22" font-weight="700" fill="#2C2439">星币六</text>
  <text x="160" y="86" text-anchor="middle" font-family="-apple-system,BlinkMacSystemFont,Segoe UI,sans-serif" font-size="12" font-weight="600" fill="#7E718D">Six of Pentacles</text>
  
  <text x="50" y="125" text-anchor="middle" font-family="Georgia,serif" font-size="32" font-weight="700" fill="#B38A45">6</text>
  <text x="270" y="410" text-anchor="middle" font-family="Georgia,serif" font-size="32" font-weight="700" fill="#B38A45">6</text>
  <circle cx="160" cy="252" r="102" fill="#B38A45" opacity=".07"/>
  <rect x="76" y="132" width="168" height="236" rx="32" fill="rgba(255,255,255,.44)" stroke="#B38A45" stroke-width="1.5" opacity=".74"/>
  <g opacity="0.95"><circle cx="116" cy="223" r="24" fill="none" stroke="#B38A45" stroke-width="4"/><path d="M116 205l5.6 11.4 12.6 1.8-9.1 8.9 2.1 12.5L116 234l-11.2 5.9 2.1-12.5-9.1-8.9 12.6-1.8L116 205Z" fill="#F8DFA7" stroke="#B38A45" stroke-width="1.5"/></g>
<g opacity="0.95"><circle cx="160" cy="223" r="24" fill="none" stroke="#B38A45" stroke-width="4"/><path d="M160 205l5.6 11.4 12.6 1.8-9.1 8.9 2.1 12.5L160 234l-11.2 5.9 2.1-12.5-9.1-8.9 12.6-1.8L160 205Z" fill="#F8DFA7" stroke="#B38A45" stroke-width="1.5"/></g>
<g opacity="0.95"><circle cx="204" cy="223" r="24" fill="none" stroke="#B38A45" stroke-width="4"/><path d="M204 205l5.6 11.4 12.6 1.8-9.1 8.9 2.1 12.5L204 234l-11.2 5.9 2.1-12.5-9.1-8.9 12.6-1.8L204 205Z" fill="#F8DFA7" stroke="#B38A45" stroke-width="1.5"/></g>
<g opacity="0.95"><circle cx="116" cy="277" r="24" fill="none" stroke="#B38A45" stroke-width="4"/><path d="M116 259l5.6 11.4 12.6 1.8-9.1 8.9 2.1 12.5L116 288l-11.2 5.9 2.1-12.5-9.1-8.9 12.6-1.8L116 259Z" fill="#F8DFA7" stroke="#B38A45" stroke-width="1.5"/></g>
<g opacity="0.95"><circle cx="160" cy="277" r="24" fill="none" stroke="#B38A45" stroke-width="4"/><path d="M160 259l5.6 11.4 12.6 1.8-9.1 8.9 2.1 12.5L160 288l-11.2 5.9 2.1-12.5-9.1-8.9 12.6-1.8L160 259Z" fill="#F8DFA7" stroke="#B38A45" stroke-width="1.5"/></g>
<g opacity="0.95"><circle cx="204" cy="277" r="24" fill="none" stroke="#B38A45" stroke-width="4"/><path d="M204 259l5.6 11.4 12.6 1.8-9.1 8.9 2.1 12.5L204 288l-11.2 5.9 2.1-12.5-9.1-8.9 12.6-1.8L204 259Z" fill="#F8DFA7" stroke="#B38A45" stroke-width="1.5"/></g>
  
  <text x="160" y="398" text-anchor="middle" font-family="-apple-system,BlinkMacSystemFont,Segoe UI,sans-serif" font-size="14" font-weight="700" fill="#6A5F77">互惠 · 修复</text>
  <text x="160" y="448" text-anchor="middle" font-family="-apple-system,BlinkMacSystemFont,Segoe UI,sans-serif" font-size="13" font-weight="700" fill="#B38A45">小阿卡那</text>
  <text x="160" y="474" text-anchor="middle" font-family="-apple-system,BlinkMacSystemFont,Segoe UI,sans-serif" font-size="16" font-weight="700" fill="#5C5368">现实流动</text>
  <defs>
    <linearGradient id="paper" x1="22" y1="18" x2="302" y2="510" gradientUnits="userSpaceOnUse">
      <stop stop-color="#FFFDF8"/>
      <stop offset=".52" stop-color="#F8EEF7"/>
      <stop offset="1" stop-color="#EAF4FF"/>
    </linearGradient>
    <linearGradient id="edge" x1="14" y1="10" x2="310" y2="510" gradientUnits="userSpaceOnUse">
      <stop stop-color="#FFF8E8"/>
      <stop offset=".5" stop-color="#F8DFA7"/>
      <stop offset="1" stop-color="#B38A45"/>
    </linearGradient>
  </defs>
</svg>