<svg width="320" height="520" viewBox="0 0 320 520" fill="none" xmlns="http://www.w3.org/2000/svg" role="img" aria-label="星币六">
  <rect x="10" y="10" width="300" height="500" rx="30" fill="url(#paper)" stroke="url(#edge)" stroke-width="2"/>
  <rect x="28" y="28" width="264" height="464" rx="22" fill="rgba(255,255,255,.30)" stroke="rgba(255,255,255,.7)"/>
  <circle cx="56" cy="74" r="22" fill="#B38A45" opacity=".14"/>
  <circle cx="264" cy="446" r="30" fill="#F8DFA7" opacity=".2"/>
  <text x="160" y="62" text-anchor="middle" font-family="-apple-system,BlinkMacSystemFont,Segoe UI,sans-serif" font-size="22" font-weight="700" fill="#2C2439">星币六</text>
  <text x="160" y="86" text-anchor="middle" font-family="-apple-system,BlinkMacSystemFont,Segoe UI,sans-serif" font-size="12" font-weight="600" fill="#7E718D">Six of Pentacles</text>
  <clipPath id="win"><rect x="46" y="100" width="228" height="256" rx="18"/></clipPath>
  <g clip-path="url(#win)">
    <rect x="46" y="100" width="228" height="256" fill="url(#sky)"/>
    <circle cx="160" cy="112" r="150" fill="#B38A45" opacity=".05"/><path d="M46 296 L96 250 L138 284 L190 240 L244 288 L274 296 Z" fill="#c7bda0" opacity="0.3"/><rect x="46" y="296" width="228" height="60" fill="#d3c39a" opacity="0.45"/><g><circle cx="110" cy="156" r="13.12" fill="#B38A45" opacity=".32"/><circle cx="110" cy="156" r="13.12" fill="none" stroke="#B38A45" stroke-width="1.64"/><path d="M110 146.16 L112.89 152.02 L119.36 152.96 L114.68 157.52 L115.78 163.96 L110 160.92 L104.22 163.96 L105.32 157.52 L100.64 152.96 L107.11 152.02 Z" fill="none" stroke="#B38A45" stroke-width="1.312"/></g><g><circle cx="210" cy="156" r="13.12" fill="#B38A45" opacity=".32"/><circle cx="210" cy="156" r="13.12" fill="none" stroke="#B38A45" stroke-width="1.64"/><path d="M210 146.16 L212.89 152.02 L219.36 152.96 L214.68 157.52 L215.78 163.96 L210 160.92 L204.22 163.96 L205.32 157.52 L200.64 152.96 L207.11 152.02 Z" fill="none" stroke="#B38A45" stroke-width="1.312"/></g><g><circle cx="110" cy="226" r="13.12" fill="#B38A45" opacity=".32"/><circle cx="110" cy="226" r="13.12" fill="none" stroke="#B38A45" stroke-width="1.64"/><path d="M110 216.16 L112.89 222.02 L119.36 222.96 L114.68 227.52 L115.78 233.96 L110 230.92 L104.22 233.96 L105.32 227.52 L100.64 222.96 L107.11 222.02 Z" fill="none" stroke="#B38A45" stroke-width="1.312"/></g><g><circle cx="210" cy="226" r="13.12" fill="#B38A45" opacity=".32"/><circle cx="210" cy="226" r="13.12" fill="none" stroke="#B38A45" stroke-width="1.64"/><path d="M210 216.16 L212.89 222.02 L219.36 222.96 L214.68 227.52 L215.78 233.96 L210 230.92 L204.22 233.96 L205.32 227.52 L200.64 222.96 L207.11 222.02 Z" fill="none" stroke="#B38A45" stroke-width="1.312"/></g><g><circle cx="110" cy="296" r="13.12" fill="#B38A45" opacity=".32"/><circle cx="110" cy="296" r="13.12" fill="none" stroke="#B38A45" stroke-width="1.64"/><path d="M110 286.16 L112.89 292.02 L119.36 292.96 L114.68 297.52 L115.78 303.96 L110 300.92 L104.22 303.96 L105.32 297.52 L100.64 292.96 L107.11 292.02 Z" fill="none" stroke="#B38A45" stroke-width="1.312"/></g><g><circle cx="210" cy="296" r="13.12" fill="#B38A45" opacity=".32"/><circle cx="210" cy="296" r="13.12" fill="none" stroke="#B38A45" stroke-width="1.64"/><path d="M210 286.16 L212.89 292.02 L219.36 292.96 L214.68 297.52 L215.78 303.96 L210 300.92 L204.22 303.96 L205.32 297.52 L200.64 292.96 L207.11 292.02 Z" fill="none" stroke="#B38A45" stroke-width="1.312"/></g></g><rect x="46" y="100" width="228" height="256" rx="18" fill="none" stroke="rgba(255,255,255,.7)" stroke-width="1.5"/>
  <text x="160" y="402" text-anchor="middle" font-family="-apple-system,BlinkMacSystemFont,Segoe UI,sans-serif" font-size="14" font-weight="700" fill="#6A5F77">慷慨互助 · 公平交换</text>
  <text x="160" y="446" text-anchor="middle" font-family="-apple-system,BlinkMacSystemFont,Segoe UI,sans-serif" font-size="13" font-weight="700" fill="#B38A45">小阿卡那</text>
  <text x="160" y="474" text-anchor="middle" font-family="-apple-system,BlinkMacSystemFont,Segoe UI,sans-serif" font-size="16" font-weight="700" fill="#5C5368">施与受</text>
  <defs>
    <linearGradient id="paper" x1="22" y1="18" x2="302" y2="510" gradientUnits="userSpaceOnUse">
      <stop stop-color="#FFFDF8"/><stop offset=".52" stop-color="#F8EEF7"/><stop offset="1" stop-color="#EAF4FF"/>
    </linearGradient>
    <linearGradient id="edge" x1="14" y1="10" x2="310" y2="510" gradientUnits="userSpaceOnUse">
      <stop stop-color="#FFF8E8"/><stop offset=".5" stop-color="#F8DFA7"/><stop offset="1" stop-color="#B38A45"/>
    </linearGradient>
    <linearGradient id="sky" x1="0" y1="100" x2="0" y2="356" gradientUnits="userSpaceOnUse">
      <stop stop-color="#FBF6FF"/><stop offset="1" stop-color="#EAF1FF"/>
    </linearGradient>
  </defs>
</svg>