<svg width="320" height="520" viewBox="0 0 320 520" fill="none" xmlns="http://www.w3.org/2000/svg" role="img" aria-label="星币五">
  <rect x="10" y="10" width="300" height="500" rx="30" fill="url(#paper)" stroke="url(#edge)" stroke-width="2"/>
  <rect x="28" y="28" width="264" height="464" rx="22" fill="rgba(255,255,255,.30)" stroke="rgba(255,255,255,.7)"/>
  <circle cx="56" cy="74" r="22" fill="#B38A45" opacity=".14"/>
  <circle cx="264" cy="446" r="30" fill="#F8DFA7" opacity=".2"/>
  <text x="160" y="62" text-anchor="middle" font-family="-apple-system,BlinkMacSystemFont,Segoe UI,sans-serif" font-size="22" font-weight="700" fill="#2C2439">星币五</text>
  <text x="160" y="86" text-anchor="middle" font-family="-apple-system,BlinkMacSystemFont,Segoe UI,sans-serif" font-size="12" font-weight="600" fill="#7E718D">Five of Pentacles</text>
  <clipPath id="win"><rect x="46" y="100" width="228" height="256" rx="18"/></clipPath>
  <g clip-path="url(#win)">
    <rect x="46" y="100" width="228" height="256" fill="url(#sky)"/>
    <circle cx="160" cy="112" r="150" fill="#B38A45" opacity=".05"/><path d="M46 296 L96 250 L138 284 L190 240 L244 288 L274 296 Z" fill="#c7bda0" opacity="0.3"/><rect x="46" y="296" width="228" height="60" fill="#d3c39a" opacity="0.45"/><g><circle cx="110" cy="160" r="15.2" fill="#B38A45" opacity=".32"/><circle cx="110" cy="160" r="15.2" fill="none" stroke="#B38A45" stroke-width="1.9"/><path d="M110 148.6 L113.35 155.39 L120.84 156.48 L115.42 161.76 L116.7 169.22 L110 165.7 L103.3 169.22 L104.58 161.76 L99.16 156.48 L106.65 155.39 Z" fill="none" stroke="#B38A45" stroke-width="1.52"/></g><g><circle cx="210" cy="160" r="15.2" fill="#B38A45" opacity=".32"/><circle cx="210" cy="160" r="15.2" fill="none" stroke="#B38A45" stroke-width="1.9"/><path d="M210 148.6 L213.35 155.39 L220.84 156.48 L215.42 161.76 L216.7 169.22 L210 165.7 L203.3 169.22 L204.58 161.76 L199.16 156.48 L206.65 155.39 Z" fill="none" stroke="#B38A45" stroke-width="1.52"/></g><g><circle cx="160" cy="226" r="15.2" fill="#B38A45" opacity=".32"/><circle cx="160" cy="226" r="15.2" fill="none" stroke="#B38A45" stroke-width="1.9"/><path d="M160 214.6 L163.35 221.39 L170.84 222.48 L165.42 227.76 L166.7 235.22 L160 231.7 L153.3 235.22 L154.58 227.76 L149.16 222.48 L156.65 221.39 Z" fill="none" stroke="#B38A45" stroke-width="1.52"/></g><g><circle cx="110" cy="292" r="15.2" fill="#B38A45" opacity=".32"/><circle cx="110" cy="292" r="15.2" fill="none" stroke="#B38A45" stroke-width="1.9"/><path d="M110 280.6 L113.35 287.39 L120.84 288.48 L115.42 293.76 L116.7 301.22 L110 297.7 L103.3 301.22 L104.58 293.76 L99.16 288.48 L106.65 287.39 Z" fill="none" stroke="#B38A45" stroke-width="1.52"/></g><g><circle cx="210" cy="292" r="15.2" fill="#B38A45" opacity=".32"/><circle cx="210" cy="292" r="15.2" fill="none" stroke="#B38A45" stroke-width="1.9"/><path d="M210 280.6 L213.35 287.39 L220.84 288.48 L215.42 293.76 L216.7 301.22 L210 297.7 L203.3 301.22 L204.58 293.76 L199.16 288.48 L206.65 287.39 Z" fill="none" stroke="#B38A45" stroke-width="1.52"/></g></g><rect x="46" y="100" width="228" height="256" rx="18" fill="none" stroke="rgba(255,255,255,.7)" stroke-width="1.5"/>
  <text x="160" y="402" text-anchor="middle" font-family="-apple-system,BlinkMacSystemFont,Segoe UI,sans-serif" font-size="14" font-weight="700" fill="#6A5F77">匮乏感 · 经济压力</text>
  <text x="160" y="446" text-anchor="middle" font-family="-apple-system,BlinkMacSystemFont,Segoe UI,sans-serif" font-size="13" font-weight="700" fill="#B38A45">小阿卡那</text>
  <text x="160" y="474" text-anchor="middle" font-family="-apple-system,BlinkMacSystemFont,Segoe UI,sans-serif" font-size="16" font-weight="700" fill="#5C5368">孤立无援</text>
  <defs>
    <linearGradient id="paper" x1="22" y1="18" x2="302" y2="510" gradientUnits="userSpaceOnUse">
      <stop stop-color="#FFFDF8"/><stop offset=".52" stop-color="#F8EEF7"/><stop offset="1" stop-color="#EAF4FF"/>
    </linearGradient>
    <linearGradient id="edge" x1="14" y1="10" x2="310" y2="510" gradientUnits="userSpaceOnUse">
      <stop stop-color="#FFF8E8"/><stop offset=".5" stop-color="#F8DFA7"/><stop offset="1" stop-color="#B38A45"/>
    </linearGradient>
    <linearGradient id="sky" x1="0" y1="100" x2="0" y2="356" gradientUnits="userSpaceOnUse">
      <stop stop-color="#FBF6FF"/><stop offset="1" stop-color="#EAF1FF"/>
    </linearGradient>
  </defs>
</svg>