<svg width="320" height="520" viewBox="0 0 320 520" fill="none" xmlns="http://www.w3.org/2000/svg" role="img" aria-label="星币十">
  <rect x="10" y="10" width="300" height="500" rx="30" fill="url(#paper)" stroke="url(#edge)" stroke-width="2"/>
  <rect x="28" y="28" width="264" height="464" rx="22" fill="rgba(255,255,255,.34)" stroke="rgba(255,255,255,.72)"/>
  <circle cx="56" cy="74" r="22" fill="#B38A45" opacity=".14"/>
  <circle cx="264" cy="446" r="30" fill="#F8DFA7" opacity=".18"/>
  <text x="160" y="62" text-anchor="middle" font-family="-apple-system,BlinkMacSystemFont,Segoe UI,sans-serif" font-size="22" font-weight="700" fill="#2C2439">星币十</text>
  <text x="160" y="86" text-anchor="middle" font-family="-apple-system,BlinkMacSystemFont,Segoe UI,sans-serif" font-size="12" font-weight="600" fill="#7E718D">Ten of Pentacles</text>
  
  <text x="50" y="125" text-anchor="middle" font-family="Georgia,serif" font-size="32" font-weight="700" fill="#B38A45">10</text>
  <text x="270" y="410" text-anchor="middle" font-family="Georgia,serif" font-size="32" font-weight="700" fill="#B38A45">10</text>
  <circle cx="160" cy="252" r="102" fill="#B38A45" opacity=".07"/>
  <rect x="76" y="132" width="168" height="236" rx="32" fill="rgba(255,255,255,.44)" stroke="#B38A45" stroke-width="1.5" opacity=".74"/>
  <g opacity="0.95"><circle cx="94" cy="196" r="24" fill="none" stroke="#B38A45" stroke-width="4"/><path d="M94 178l5.6 11.4 12.6 1.8-9.1 8.9 2.1 12.5L94 207l-11.2 5.9 2.1-12.5-9.1-8.9 12.6-1.8L94 178Z" fill="#F8DFA7" stroke="#B38A45" stroke-width="1.5"/></g>
<g opacity="0.95"><circle cx="138" cy="196" r="24" fill="none" stroke="#B38A45" stroke-width="4"/><path d="M138 178l5.6 11.4 12.6 1.8-9.1 8.9 2.1 12.5L138 207l-11.2 5.9 2.1-12.5-9.1-8.9 12.6-1.8L138 178Z" fill="#F8DFA7" stroke="#B38A45" stroke-width="1.5"/></g>
<g opacity="0.95"><circle cx="182" cy="196" r="24" fill="none" stroke="#B38A45" stroke-width="4"/><path d="M182 178l5.6 11.4 12.6 1.8-9.1 8.9 2.1 12.5L182 207l-11.2 5.9 2.1-12.5-9.1-8.9 12.6-1.8L182 178Z" fill="#F8DFA7" stroke="#B38A45" stroke-width="1.5"/></g>
<g opacity="0.95"><circle cx="226" cy="196" r="24" fill="none" stroke="#B38A45" stroke-width="4"/><path d="M226 178l5.6 11.4 12.6 1.8-9.1 8.9 2.1 12.5L226 207l-11.2 5.9 2.1-12.5-9.1-8.9 12.6-1.8L226 178Z" fill="#F8DFA7" stroke="#B38A45" stroke-width="1.5"/></g>
<g opacity="0.95"><circle cx="94" cy="250" r="24" fill="none" stroke="#B38A45" stroke-width="4"/><path d="M94 232l5.6 11.4 12.6 1.8-9.1 8.9 2.1 12.5L94 261l-11.2 5.9 2.1-12.5-9.1-8.9 12.6-1.8L94 232Z" fill="#F8DFA7" stroke="#B38A45" stroke-width="1.5"/></g>
<g opacity="0.95"><circle cx="138" cy="250" r="24" fill="none" stroke="#B38A45" stroke-width="4"/><path d="M138 232l5.6 11.4 12.6 1.8-9.1 8.9 2.1 12.5L138 261l-11.2 5.9 2.1-12.5-9.1-8.9 12.6-1.8L138 232Z" fill="#F8DFA7" stroke="#B38A45" stroke-width="1.5"/></g>
<g opacity="0.95"><circle cx="182" cy="250" r="24" fill="none" stroke="#B38A45" stroke-width="4"/><path d="M182 232l5.6 11.4 12.6 1.8-9.1 8.9 2.1 12.5L182 261l-11.2 5.9 2.1-12.5-9.1-8.9 12.6-1.8L182 232Z" fill="#F8DFA7" stroke="#B38A45" stroke-width="1.5"/></g>
<g opacity="0.95"><circle cx="226" cy="250" r="24" fill="none" stroke="#B38A45" stroke-width="4"/><path d="M226 232l5.6 11.4 12.6 1.8-9.1 8.9 2.1 12.5L226 261l-11.2 5.9 2.1-12.5-9.1-8.9 12.6-1.8L226 232Z" fill="#F8DFA7" stroke="#B38A45" stroke-width="1.5"/></g>
<g opacity="0.95"><circle cx="94" cy="304" r="24" fill="none" stroke="#B38A45" stroke-width="4"/><path d="M94 286l5.6 11.4 12.6 1.8-9.1 8.9 2.1 12.5L94 315l-11.2 5.9 2.1-12.5-9.1-8.9 12.6-1.8L94 286Z" fill="#F8DFA7" stroke="#B38A45" stroke-width="1.5"/></g>
<g opacity="0.95"><circle cx="138" cy="304" r="24" fill="none" stroke="#B38A45" stroke-width="4"/><path d="M138 286l5.6 11.4 12.6 1.8-9.1 8.9 2.1 12.5L138 315l-11.2 5.9 2.1-12.5-9.1-8.9 12.6-1.8L138 286Z" fill="#F8DFA7" stroke="#B38A45" stroke-width="1.5"/></g>
  
  <text x="160" y="398" text-anchor="middle" font-family="-apple-system,BlinkMacSystemFont,Segoe UI,sans-serif" font-size="14" font-weight="700" fill="#6A5F77">承担 · 阶段结果</text>
  <text x="160" y="448" text-anchor="middle" font-family="-apple-system,BlinkMacSystemFont,Segoe UI,sans-serif" font-size="13" font-weight="700" fill="#B38A45">小阿卡那</text>
  <text x="160" y="474" text-anchor="middle" font-family="-apple-system,BlinkMacSystemFont,Segoe UI,sans-serif" font-size="16" font-weight="700" fill="#5C5368">现实完成</text>
  <defs>
    <linearGradient id="paper" x1="22" y1="18" x2="302" y2="510" gradientUnits="userSpaceOnUse">
      <stop stop-color="#FFFDF8"/>
      <stop offset=".52" stop-color="#F8EEF7"/>
      <stop offset="1" stop-color="#EAF4FF"/>
    </linearGradient>
    <linearGradient id="edge" x1="14" y1="10" x2="310" y2="510" gradientUnits="userSpaceOnUse">
      <stop stop-color="#FFF8E8"/>
      <stop offset=".5" stop-color="#F8DFA7"/>
      <stop offset="1" stop-color="#B38A45"/>
    </linearGradient>
  </defs>
</svg>