<svg width="320" height="520" viewBox="0 0 320 520" fill="none" xmlns="http://www.w3.org/2000/svg" role="img" aria-label="星币骑士">
  <rect x="10" y="10" width="300" height="500" rx="30" fill="url(#paper)" stroke="url(#edge)" stroke-width="2"/>
  <rect x="28" y="28" width="264" height="464" rx="22" fill="rgba(255,255,255,.30)" stroke="rgba(255,255,255,.7)"/>
  <circle cx="56" cy="74" r="22" fill="#B38A45" opacity=".14"/>
  <circle cx="264" cy="446" r="30" fill="#F8DFA7" opacity=".2"/>
  <text x="160" y="62" text-anchor="middle" font-family="-apple-system,BlinkMacSystemFont,Segoe UI,sans-serif" font-size="22" font-weight="700" fill="#2C2439">星币骑士</text>
  <text x="160" y="86" text-anchor="middle" font-family="-apple-system,BlinkMacSystemFont,Segoe UI,sans-serif" font-size="12" font-weight="600" fill="#7E718D">Knight of Pentacles</text>
  <clipPath id="win"><rect x="46" y="100" width="228" height="256" rx="18"/></clipPath>
  <g clip-path="url(#win)">
    <rect x="46" y="100" width="228" height="256" fill="url(#sky)"/>
    <circle cx="160" cy="112" r="150" fill="#B38A45" opacity=".05"/><path d="M46 296 L96 250 L138 284 L190 240 L244 288 L274 296 Z" fill="#b9b0d2" opacity="0.35"/><rect x="46" y="296" width="228" height="60" fill="#d6cbaf" opacity="0.45"/>
      <ellipse cx="160" cy="322" rx="58" ry="14" fill="#fff" opacity=".4"/>
      <path d="M110 320 q10 -54 56 -54 q34 0 40 30 l-6 24 Z" fill="#cdbf9b" opacity=".6"/>
      <g>
    <path d="M135.8 286 C138.6 238.4 145.6 233.64 154 233.64 C162.4 233.64 169.4 238.4 172.2 286 Z" fill="#B38A45" opacity=".88"/>
    <circle cx="154" cy="224.4" r="8.4" fill="#EAC9A6"/>
  </g>
      <line x1="114" y1="320" x2="114" y2="346" stroke="#3A3350" stroke-width="3"/><line x1="190" y1="320" x2="190" y2="346" stroke="#3A3350" stroke-width="3"/>
      <g><circle cx="200" cy="250" r="14.4" fill="#B38A45" opacity=".32"/><circle cx="200" cy="250" r="14.4" fill="none" stroke="#B38A45" stroke-width="1.8"/><path d="M200 239.2 L203.17 245.63 L210.27 246.66 L205.14 251.67 L206.35 258.74 L200 255.4 L193.65 258.74 L194.86 251.67 L189.73 246.66 L196.83 245.63 Z" fill="none" stroke="#B38A45" stroke-width="1.4400000000000002"/></g></g><rect x="46" y="100" width="228" height="256" rx="18" fill="none" stroke="rgba(255,255,255,.7)" stroke-width="1.5"/>
  <text x="160" y="402" text-anchor="middle" font-family="-apple-system,BlinkMacSystemFont,Segoe UI,sans-serif" font-size="14" font-weight="700" fill="#6A5F77">稳健前行 · 可靠勤奋</text>
  <text x="160" y="446" text-anchor="middle" font-family="-apple-system,BlinkMacSystemFont,Segoe UI,sans-serif" font-size="13" font-weight="700" fill="#B38A45">小阿卡那</text>
  <text x="160" y="474" text-anchor="middle" font-family="-apple-system,BlinkMacSystemFont,Segoe UI,sans-serif" font-size="16" font-weight="700" fill="#5C5368">按部就班</text>
  <defs>
    <linearGradient id="paper" x1="22" y1="18" x2="302" y2="510" gradientUnits="userSpaceOnUse">
      <stop stop-color="#FFFDF8"/><stop offset=".52" stop-color="#F8EEF7"/><stop offset="1" stop-color="#EAF4FF"/>
    </linearGradient>
    <linearGradient id="edge" x1="14" y1="10" x2="310" y2="510" gradientUnits="userSpaceOnUse">
      <stop stop-color="#FFF8E8"/><stop offset=".5" stop-color="#F8DFA7"/><stop offset="1" stop-color="#B38A45"/>
    </linearGradient>
    <linearGradient id="sky" x1="0" y1="100" x2="0" y2="356" gradientUnits="userSpaceOnUse">
      <stop stop-color="#FBF6FF"/><stop offset="1" stop-color="#EAF1FF"/>
    </linearGradient>
  </defs>
</svg>