<svg width="320" height="520" viewBox="0 0 320 520" fill="none" xmlns="http://www.w3.org/2000/svg" role="img" aria-label="星币九">
  <rect x="10" y="10" width="300" height="500" rx="30" fill="url(#paper)" stroke="url(#edge)" stroke-width="2"/>
  <rect x="28" y="28" width="264" height="464" rx="22" fill="rgba(255,255,255,.30)" stroke="rgba(255,255,255,.7)"/>
  <circle cx="56" cy="74" r="22" fill="#B38A45" opacity=".14"/>
  <circle cx="264" cy="446" r="30" fill="#F8DFA7" opacity=".2"/>
  <text x="160" y="62" text-anchor="middle" font-family="-apple-system,BlinkMacSystemFont,Segoe UI,sans-serif" font-size="22" font-weight="700" fill="#2C2439">星币九</text>
  <text x="160" y="86" text-anchor="middle" font-family="-apple-system,BlinkMacSystemFont,Segoe UI,sans-serif" font-size="12" font-weight="600" fill="#7E718D">Nine of Pentacles</text>
  <clipPath id="win"><rect x="46" y="100" width="228" height="256" rx="18"/></clipPath>
  <g clip-path="url(#win)">
    <rect x="46" y="100" width="228" height="256" fill="url(#sky)"/>
    <circle cx="160" cy="112" r="150" fill="#B38A45" opacity=".05"/><path d="M46 296 L96 250 L138 284 L190 240 L244 288 L274 296 Z" fill="#c7bda0" opacity="0.3"/><rect x="46" y="296" width="228" height="60" fill="#d3c39a" opacity="0.45"/><g><circle cx="102" cy="150" r="11.2" fill="#B38A45" opacity=".32"/><circle cx="102" cy="150" r="11.2" fill="none" stroke="#B38A45" stroke-width="1.4"/><path d="M102 141.6 L104.47 146.6 L109.99 147.4 L105.99 151.3 L106.94 156.8 L102 154.2 L97.06 156.8 L98.01 151.3 L94.01 147.4 L99.53 146.6 Z" fill="none" stroke="#B38A45" stroke-width="1.1199999999999999"/></g><g><circle cx="160" cy="150" r="11.2" fill="#B38A45" opacity=".32"/><circle cx="160" cy="150" r="11.2" fill="none" stroke="#B38A45" stroke-width="1.4"/><path d="M160 141.6 L162.47 146.6 L167.99 147.4 L163.99 151.3 L164.94 156.8 L160 154.2 L155.06 156.8 L156.01 151.3 L152.01 147.4 L157.53 146.6 Z" fill="none" stroke="#B38A45" stroke-width="1.1199999999999999"/></g><g><circle cx="218" cy="150" r="11.2" fill="#B38A45" opacity=".32"/><circle cx="218" cy="150" r="11.2" fill="none" stroke="#B38A45" stroke-width="1.4"/><path d="M218 141.6 L220.47 146.6 L225.99 147.4 L221.99 151.3 L222.94 156.8 L218 154.2 L213.06 156.8 L214.01 151.3 L210.01 147.4 L215.53 146.6 Z" fill="none" stroke="#B38A45" stroke-width="1.1199999999999999"/></g><g><circle cx="102" cy="224" r="11.2" fill="#B38A45" opacity=".32"/><circle cx="102" cy="224" r="11.2" fill="none" stroke="#B38A45" stroke-width="1.4"/><path d="M102 215.6 L104.47 220.6 L109.99 221.4 L105.99 225.3 L106.94 230.8 L102 228.2 L97.06 230.8 L98.01 225.3 L94.01 221.4 L99.53 220.6 Z" fill="none" stroke="#B38A45" stroke-width="1.1199999999999999"/></g><g><circle cx="160" cy="224" r="11.2" fill="#B38A45" opacity=".32"/><circle cx="160" cy="224" r="11.2" fill="none" stroke="#B38A45" stroke-width="1.4"/><path d="M160 215.6 L162.47 220.6 L167.99 221.4 L163.99 225.3 L164.94 230.8 L160 228.2 L155.06 230.8 L156.01 225.3 L152.01 221.4 L157.53 220.6 Z" fill="none" stroke="#B38A45" stroke-width="1.1199999999999999"/></g><g><circle cx="218" cy="224" r="11.2" fill="#B38A45" opacity=".32"/><circle cx="218" cy="224" r="11.2" fill="none" stroke="#B38A45" stroke-width="1.4"/><path d="M218 215.6 L220.47 220.6 L225.99 221.4 L221.99 225.3 L222.94 230.8 L218 228.2 L213.06 230.8 L214.01 225.3 L210.01 221.4 L215.53 220.6 Z" fill="none" stroke="#B38A45" stroke-width="1.1199999999999999"/></g><g><circle cx="102" cy="298" r="11.2" fill="#B38A45" opacity=".32"/><circle cx="102" cy="298" r="11.2" fill="none" stroke="#B38A45" stroke-width="1.4"/><path d="M102 289.6 L104.47 294.6 L109.99 295.4 L105.99 299.3 L106.94 304.8 L102 302.2 L97.06 304.8 L98.01 299.3 L94.01 295.4 L99.53 294.6 Z" fill="none" stroke="#B38A45" stroke-width="1.1199999999999999"/></g><g><circle cx="160" cy="298" r="11.2" fill="#B38A45" opacity=".32"/><circle cx="160" cy="298" r="11.2" fill="none" stroke="#B38A45" stroke-width="1.4"/><path d="M160 289.6 L162.47 294.6 L167.99 295.4 L163.99 299.3 L164.94 304.8 L160 302.2 L155.06 304.8 L156.01 299.3 L152.01 295.4 L157.53 294.6 Z" fill="none" stroke="#B38A45" stroke-width="1.1199999999999999"/></g><g><circle cx="218" cy="298" r="11.2" fill="#B38A45" opacity=".32"/><circle cx="218" cy="298" r="11.2" fill="none" stroke="#B38A45" stroke-width="1.4"/><path d="M218 289.6 L220.47 294.6 L225.99 295.4 L221.99 299.3 L222.94 304.8 L218 302.2 L213.06 304.8 L214.01 299.3 L210.01 295.4 L215.53 294.6 Z" fill="none" stroke="#B38A45" stroke-width="1.1199999999999999"/></g></g><rect x="46" y="100" width="228" height="256" rx="18" fill="none" stroke="rgba(255,255,255,.7)" stroke-width="1.5"/>
  <text x="160" y="402" text-anchor="middle" font-family="-apple-system,BlinkMacSystemFont,Segoe UI,sans-serif" font-size="14" font-weight="700" fill="#6A5F77">自足享受 · 独立成果</text>
  <text x="160" y="446" text-anchor="middle" font-family="-apple-system,BlinkMacSystemFont,Segoe UI,sans-serif" font-size="13" font-weight="700" fill="#B38A45">小阿卡那</text>
  <text x="160" y="474" text-anchor="middle" font-family="-apple-system,BlinkMacSystemFont,Segoe UI,sans-serif" font-size="16" font-weight="700" fill="#5C5368">品质生活</text>
  <defs>
    <linearGradient id="paper" x1="22" y1="18" x2="302" y2="510" gradientUnits="userSpaceOnUse">
      <stop stop-color="#FFFDF8"/><stop offset=".52" stop-color="#F8EEF7"/><stop offset="1" stop-color="#EAF4FF"/>
    </linearGradient>
    <linearGradient id="edge" x1="14" y1="10" x2="310" y2="510" gradientUnits="userSpaceOnUse">
      <stop stop-color="#FFF8E8"/><stop offset=".5" stop-color="#F8DFA7"/><stop offset="1" stop-color="#B38A45"/>
    </linearGradient>
    <linearGradient id="sky" x1="0" y1="100" x2="0" y2="356" gradientUnits="userSpaceOnUse">
      <stop stop-color="#FBF6FF"/><stop offset="1" stop-color="#EAF1FF"/>
    </linearGradient>
  </defs>
</svg>