<svg width="320" height="520" viewBox="0 0 320 520" fill="none" xmlns="http://www.w3.org/2000/svg" role="img" aria-label="星币七">
  <rect x="10" y="10" width="300" height="500" rx="30" fill="url(#paper)" stroke="url(#edge)" stroke-width="2"/>
  <rect x="28" y="28" width="264" height="464" rx="22" fill="rgba(255,255,255,.30)" stroke="rgba(255,255,255,.7)"/>
  <circle cx="56" cy="74" r="22" fill="#B38A45" opacity=".14"/>
  <circle cx="264" cy="446" r="30" fill="#F8DFA7" opacity=".2"/>
  <text x="160" y="62" text-anchor="middle" font-family="-apple-system,BlinkMacSystemFont,Segoe UI,sans-serif" font-size="22" font-weight="700" fill="#2C2439">星币七</text>
  <text x="160" y="86" text-anchor="middle" font-family="-apple-system,BlinkMacSystemFont,Segoe UI,sans-serif" font-size="12" font-weight="600" fill="#7E718D">Seven of Pentacles</text>
  <clipPath id="win"><rect x="46" y="100" width="228" height="256" rx="18"/></clipPath>
  <g clip-path="url(#win)">
    <rect x="46" y="100" width="228" height="256" fill="url(#sky)"/>
    <circle cx="160" cy="112" r="150" fill="#B38A45" opacity=".05"/><path d="M46 296 L96 250 L138 284 L190 240 L244 288 L274 296 Z" fill="#c7bda0" opacity="0.3"/><rect x="46" y="296" width="228" height="60" fill="#d3c39a" opacity="0.45"/><g><circle cx="110" cy="150" r="13.12" fill="#B38A45" opacity=".32"/><circle cx="110" cy="150" r="13.12" fill="none" stroke="#B38A45" stroke-width="1.64"/><path d="M110 140.16 L112.89 146.02 L119.36 146.96 L114.68 151.52 L115.78 157.96 L110 154.92 L104.22 157.96 L105.32 151.52 L100.64 146.96 L107.11 146.02 Z" fill="none" stroke="#B38A45" stroke-width="1.312"/></g><g><circle cx="210" cy="150" r="13.12" fill="#B38A45" opacity=".32"/><circle cx="210" cy="150" r="13.12" fill="none" stroke="#B38A45" stroke-width="1.64"/><path d="M210 140.16 L212.89 146.02 L219.36 146.96 L214.68 151.52 L215.78 157.96 L210 154.92 L204.22 157.96 L205.32 151.52 L200.64 146.96 L207.11 146.02 Z" fill="none" stroke="#B38A45" stroke-width="1.312"/></g><g><circle cx="110" cy="214" r="13.12" fill="#B38A45" opacity=".32"/><circle cx="110" cy="214" r="13.12" fill="none" stroke="#B38A45" stroke-width="1.64"/><path d="M110 204.16 L112.89 210.02 L119.36 210.96 L114.68 215.52 L115.78 221.96 L110 218.92 L104.22 221.96 L105.32 215.52 L100.64 210.96 L107.11 210.02 Z" fill="none" stroke="#B38A45" stroke-width="1.312"/></g><g><circle cx="210" cy="214" r="13.12" fill="#B38A45" opacity=".32"/><circle cx="210" cy="214" r="13.12" fill="none" stroke="#B38A45" stroke-width="1.64"/><path d="M210 204.16 L212.89 210.02 L219.36 210.96 L214.68 215.52 L215.78 221.96 L210 218.92 L204.22 221.96 L205.32 215.52 L200.64 210.96 L207.11 210.02 Z" fill="none" stroke="#B38A45" stroke-width="1.312"/></g><g><circle cx="110" cy="278" r="13.12" fill="#B38A45" opacity=".32"/><circle cx="110" cy="278" r="13.12" fill="none" stroke="#B38A45" stroke-width="1.64"/><path d="M110 268.16 L112.89 274.02 L119.36 274.96 L114.68 279.52 L115.78 285.96 L110 282.92 L104.22 285.96 L105.32 279.52 L100.64 274.96 L107.11 274.02 Z" fill="none" stroke="#B38A45" stroke-width="1.312"/></g><g><circle cx="210" cy="278" r="13.12" fill="#B38A45" opacity=".32"/><circle cx="210" cy="278" r="13.12" fill="none" stroke="#B38A45" stroke-width="1.64"/><path d="M210 268.16 L212.89 274.02 L219.36 274.96 L214.68 279.52 L215.78 285.96 L210 282.92 L204.22 285.96 L205.32 279.52 L200.64 274.96 L207.11 274.02 Z" fill="none" stroke="#B38A45" stroke-width="1.312"/></g><g><circle cx="160" cy="318" r="13.12" fill="#B38A45" opacity=".32"/><circle cx="160" cy="318" r="13.12" fill="none" stroke="#B38A45" stroke-width="1.64"/><path d="M160 308.16 L162.89 314.02 L169.36 314.96 L164.68 319.52 L165.78 325.96 L160 322.92 L154.22 325.96 L155.32 319.52 L150.64 314.96 L157.11 314.02 Z" fill="none" stroke="#B38A45" stroke-width="1.312"/></g></g><rect x="46" y="100" width="228" height="256" rx="18" fill="none" stroke="rgba(255,255,255,.7)" stroke-width="1.5"/>
  <text x="160" y="402" text-anchor="middle" font-family="-apple-system,BlinkMacSystemFont,Segoe UI,sans-serif" font-size="14" font-weight="700" fill="#6A5F77">耐心评估 · 长期投资</text>
  <text x="160" y="446" text-anchor="middle" font-family="-apple-system,BlinkMacSystemFont,Segoe UI,sans-serif" font-size="13" font-weight="700" fill="#B38A45">小阿卡那</text>
  <text x="160" y="474" text-anchor="middle" font-family="-apple-system,BlinkMacSystemFont,Segoe UI,sans-serif" font-size="16" font-weight="700" fill="#5C5368">等候收成</text>
  <defs>
    <linearGradient id="paper" x1="22" y1="18" x2="302" y2="510" gradientUnits="userSpaceOnUse">
      <stop stop-color="#FFFDF8"/><stop offset=".52" stop-color="#F8EEF7"/><stop offset="1" stop-color="#EAF4FF"/>
    </linearGradient>
    <linearGradient id="edge" x1="14" y1="10" x2="310" y2="510" gradientUnits="userSpaceOnUse">
      <stop stop-color="#FFF8E8"/><stop offset=".5" stop-color="#F8DFA7"/><stop offset="1" stop-color="#B38A45"/>
    </linearGradient>
    <linearGradient id="sky" x1="0" y1="100" x2="0" y2="356" gradientUnits="userSpaceOnUse">
      <stop stop-color="#FBF6FF"/><stop offset="1" stop-color="#EAF1FF"/>
    </linearGradient>
  </defs>
</svg>