<svg width="320" height="520" viewBox="0 0 320 520" fill="none" xmlns="http://www.w3.org/2000/svg" role="img" aria-label="星星">
  <rect x="10" y="10" width="300" height="500" rx="30" fill="url(#paper)" stroke="url(#edge)" stroke-width="2"/>
  <rect x="28" y="28" width="264" height="464" rx="22" fill="rgba(255,255,255,.30)" stroke="rgba(255,255,255,.7)"/>
  <circle cx="56" cy="74" r="22" fill="#9A78C9" opacity=".14"/>
  <circle cx="264" cy="446" r="30" fill="#F8DFA7" opacity=".2"/>
  <text x="160" y="62" text-anchor="middle" font-family="-apple-system,BlinkMacSystemFont,Segoe UI,sans-serif" font-size="22" font-weight="700" fill="#2C2439">星星</text>
  <text x="160" y="86" text-anchor="middle" font-family="-apple-system,BlinkMacSystemFont,Segoe UI,sans-serif" font-size="12" font-weight="600" fill="#7E718D">The Star</text>
  <clipPath id="win"><rect x="46" y="100" width="228" height="256" rx="18"/></clipPath>
  <g clip-path="url(#win)">
    <rect x="46" y="100" width="228" height="256" fill="url(#sky)"/>
    <circle cx="160" cy="112" r="150" fill="#9A78C9" opacity=".05"/><rect x="46" y="318" width="228" height="38" fill="#8fb3df" opacity="0.45"/><path d="M46 330 q24 -7 48 0 t48 0 t48 0 t48 0 t48 0" fill="none" stroke="#fff" stroke-width="1.4" opacity=".5"/><path d="M46 342 q24 -7 48 0 t48 0 t48 0 t48 0 t48 0" fill="none" stroke="#fff" stroke-width="1.4" opacity=".5"/><path d="M46 354 q24 -7 48 0 t48 0 t48 0 t48 0 t48 0" fill="none" stroke="#fff" stroke-width="1.4" opacity=".5"/><rect x="46" y="318" width="228" height="38" fill="#cfe0bf" opacity="0.35"/>
    <path d="M160 150 L163.06 160.61 L172.73 155.27 L167.39 164.94 L178 168 L167.39 171.06 L172.73 180.73 L163.06 175.39 L160 186 L156.94 175.39 L147.27 180.73 L152.61 171.06 L142 168 L152.61 164.94 L147.27 155.27 L156.94 160.61 Z" fill="#F8DFA7"/>
    <path d="M86 144 L87.59 147.82 L91.71 148.15 L88.57 150.83 L89.53 154.85 L86 152.7 L82.47 154.85 L83.43 150.83 L80.29 148.15 L84.41 147.82 Z" fill="#F8DFA7" opacity=".9"/><path d="M234 144 L235.59 147.82 L239.71 148.15 L236.57 150.83 L237.53 154.85 L234 152.7 L230.47 154.85 L231.43 150.83 L228.29 148.15 L232.41 147.82 Z" fill="#F8DFA7" opacity=".9"/><path d="M106 195 L107.32 198.18 L110.76 198.45 L108.14 200.7 L108.94 204.05 L106 202.25 L103.06 204.05 L103.86 200.7 L101.24 198.45 L104.68 198.18 Z" fill="#F8DFA7" opacity=".9"/><path d="M214 195 L215.32 198.18 L218.76 198.45 L216.14 200.7 L216.94 204.05 L214 202.25 L211.06 204.05 L211.86 200.7 L209.24 198.45 L212.68 198.18 Z" fill="#F8DFA7" opacity=".9"/><path d="M130 126 L131.06 128.54 L133.8 128.76 L131.71 130.56 L132.35 133.24 L130 131.8 L127.65 133.24 L128.29 130.56 L126.2 128.76 L128.94 128.54 Z" fill="#F8DFA7" opacity=".9"/><path d="M190 126 L191.06 128.54 L193.8 128.76 L191.71 130.56 L192.35 133.24 L190 131.8 L187.65 133.24 L188.29 130.56 L186.2 128.76 L188.94 128.54 Z" fill="#F8DFA7" opacity=".9"/><path d="M160 206 L161.06 208.54 L163.8 208.76 L161.71 210.56 L162.35 213.24 L160 211.8 L157.65 213.24 L158.29 210.56 L156.2 208.76 L158.94 208.54 Z" fill="#F8DFA7" opacity=".9"/>
    <g>
    <path d="M136.08 320 C139.76 257.44 148.96 251.18 160 251.18 C171.04 251.18 180.24 257.44 183.92 320 Z" fill="#7fb0c9" opacity=".88"/>
    <circle cx="160" cy="239.04" r="11.04" fill="#EAC9A6"/>
  </g>
    <g fill="#6D8FD7" opacity=".85"><path d="M116.8 291.2 Q124 303.2 131.2 291.2 Z"/>
      <rect x="122.8 " y="298.4" width="2.4" height="6"/>
      <rect x="118.6" y="304.4" width="10.799999999999999" height="2.4" rx="2"/>
      <ellipse cx="124" cy="291.2" rx="7.199999999999999" ry="2.04" fill="#fff" opacity=".55"/></g><g fill="#6D8FD7" opacity=".85"><path d="M184.8 295.2 Q192 307.2 199.2 295.2 Z"/>
      <rect x="190.8 " y="302.4" width="2.4" height="6"/>
      <rect x="186.6" y="308.4" width="10.799999999999999" height="2.4" rx="2"/>
      <ellipse cx="192" cy="295.2" rx="7.199999999999999" ry="2.04" fill="#fff" opacity=".55"/></g></g><rect x="46" y="100" width="228" height="256" rx="18" fill="none" stroke="rgba(255,255,255,.7)" stroke-width="1.5"/>
  <text x="160" y="402" text-anchor="middle" font-family="-apple-system,BlinkMacSystemFont,Segoe UI,sans-serif" font-size="14" font-weight="700" fill="#6A5F77">希望 · 疗愈</text>
  <text x="160" y="446" text-anchor="middle" font-family="-apple-system,BlinkMacSystemFont,Segoe UI,sans-serif" font-size="13" font-weight="700" fill="#9A78C9">大阿卡那</text>
  <text x="160" y="474" text-anchor="middle" font-family="-apple-system,BlinkMacSystemFont,Segoe UI,sans-serif" font-size="16" font-weight="700" fill="#5C5368">灵感</text>
  <defs>
    <linearGradient id="paper" x1="22" y1="18" x2="302" y2="510" gradientUnits="userSpaceOnUse">
      <stop stop-color="#FFFDF8"/><stop offset=".52" stop-color="#F8EEF7"/><stop offset="1" stop-color="#EAF4FF"/>
    </linearGradient>
    <linearGradient id="edge" x1="14" y1="10" x2="310" y2="510" gradientUnits="userSpaceOnUse">
      <stop stop-color="#FFF8E8"/><stop offset=".5" stop-color="#F8DFA7"/><stop offset="1" stop-color="#9A78C9"/>
    </linearGradient>
    <linearGradient id="sky" x1="0" y1="100" x2="0" y2="356" gradientUnits="userSpaceOnUse">
      <stop stop-color="#FBF6FF"/><stop offset="1" stop-color="#EAF1FF"/>
    </linearGradient>
  </defs>
</svg>