<svg width="320" height="520" viewBox="0 0 320 520" fill="none" xmlns="http://www.w3.org/2000/svg" role="img" aria-label="宝剑五">
  <rect x="10" y="10" width="300" height="500" rx="30" fill="url(#paper)" stroke="url(#edge)" stroke-width="2"/>
  <rect x="28" y="28" width="264" height="464" rx="22" fill="rgba(255,255,255,.30)" stroke="rgba(255,255,255,.7)"/>
  <circle cx="56" cy="74" r="22" fill="#7F84A8" opacity=".14"/>
  <circle cx="264" cy="446" r="30" fill="#F8DFA7" opacity=".2"/>
  <text x="160" y="62" text-anchor="middle" font-family="-apple-system,BlinkMacSystemFont,Segoe UI,sans-serif" font-size="22" font-weight="700" fill="#2C2439">宝剑五</text>
  <text x="160" y="86" text-anchor="middle" font-family="-apple-system,BlinkMacSystemFont,Segoe UI,sans-serif" font-size="12" font-weight="600" fill="#7E718D">Five of Swords</text>
  <clipPath id="win"><rect x="46" y="100" width="228" height="256" rx="18"/></clipPath>
  <g clip-path="url(#win)">
    <rect x="46" y="100" width="228" height="256" fill="url(#sky)"/>
    <circle cx="160" cy="112" r="150" fill="#7F84A8" opacity=".05"/><path d="M46 296 L96 250 L138 284 L190 240 L244 288 L274 296 Z" fill="#b4b9d8" opacity="0.3"/><rect x="46" y="296" width="228" height="60" fill="#cdbf9b" opacity="0.4"/><g stroke="#7F84A8" stroke-width="2.8499999999999996" stroke-linecap="round"><line x1="110" y1="135.3" x2="110" y2="184.7"/><line x1="101.45" y1="169.5" x2="118.55" y2="169.5"/></g><circle cx="110" cy="184.7" r="2.8499999999999996" fill="#7F84A8"/><g stroke="#7F84A8" stroke-width="2.8499999999999996" stroke-linecap="round"><line x1="210" y1="135.3" x2="210" y2="184.7"/><line x1="201.45" y1="169.5" x2="218.55" y2="169.5"/></g><circle cx="210" cy="184.7" r="2.8499999999999996" fill="#7F84A8"/><g stroke="#7F84A8" stroke-width="2.8499999999999996" stroke-linecap="round"><line x1="160" y1="201.3" x2="160" y2="250.7"/><line x1="151.45" y1="235.5" x2="168.55" y2="235.5"/></g><circle cx="160" cy="250.7" r="2.8499999999999996" fill="#7F84A8"/><g stroke="#7F84A8" stroke-width="2.8499999999999996" stroke-linecap="round"><line x1="110" y1="267.3" x2="110" y2="316.7"/><line x1="101.45" y1="301.5" x2="118.55" y2="301.5"/></g><circle cx="110" cy="316.7" r="2.8499999999999996" fill="#7F84A8"/><g stroke="#7F84A8" stroke-width="2.8499999999999996" stroke-linecap="round"><line x1="210" y1="267.3" x2="210" y2="316.7"/><line x1="201.45" y1="301.5" x2="218.55" y2="301.5"/></g><circle cx="210" cy="316.7" r="2.8499999999999996" fill="#7F84A8"/></g><rect x="46" y="100" width="228" height="256" rx="18" fill="none" stroke="rgba(255,255,255,.7)" stroke-width="1.5"/>
  <text x="160" y="402" text-anchor="middle" font-family="-apple-system,BlinkMacSystemFont,Segoe UI,sans-serif" font-size="14" font-weight="700" fill="#6A5F77">争执胜出 · 不光彩胜利</text>
  <text x="160" y="446" text-anchor="middle" font-family="-apple-system,BlinkMacSystemFont,Segoe UI,sans-serif" font-size="13" font-weight="700" fill="#7F84A8">小阿卡那</text>
  <text x="160" y="474" text-anchor="middle" font-family="-apple-system,BlinkMacSystemFont,Segoe UI,sans-serif" font-size="16" font-weight="700" fill="#5C5368">口舌得失</text>
  <defs>
    <linearGradient id="paper" x1="22" y1="18" x2="302" y2="510" gradientUnits="userSpaceOnUse">
      <stop stop-color="#FFFDF8"/><stop offset=".52" stop-color="#F8EEF7"/><stop offset="1" stop-color="#EAF4FF"/>
    </linearGradient>
    <linearGradient id="edge" x1="14" y1="10" x2="310" y2="510" gradientUnits="userSpaceOnUse">
      <stop stop-color="#FFF8E8"/><stop offset=".5" stop-color="#F8DFA7"/><stop offset="1" stop-color="#7F84A8"/>
    </linearGradient>
    <linearGradient id="sky" x1="0" y1="100" x2="0" y2="356" gradientUnits="userSpaceOnUse">
      <stop stop-color="#FBF6FF"/><stop offset="1" stop-color="#EAF1FF"/>
    </linearGradient>
  </defs>
</svg>