<svg width="320" height="520" viewBox="0 0 320 520" fill="none" xmlns="http://www.w3.org/2000/svg" role="img" aria-label="宝剑四">
  <rect x="10" y="10" width="300" height="500" rx="30" fill="url(#paper)" stroke="url(#edge)" stroke-width="2"/>
  <rect x="28" y="28" width="264" height="464" rx="22" fill="rgba(255,255,255,.34)" stroke="rgba(255,255,255,.72)"/>
  <circle cx="56" cy="74" r="22" fill="#7F84A8" opacity=".14"/>
  <circle cx="264" cy="446" r="30" fill="#F8DFA7" opacity=".18"/>
  <text x="160" y="62" text-anchor="middle" font-family="-apple-system,BlinkMacSystemFont,Segoe UI,sans-serif" font-size="22" font-weight="700" fill="#2C2439">宝剑四</text>
  <text x="160" y="86" text-anchor="middle" font-family="-apple-system,BlinkMacSystemFont,Segoe UI,sans-serif" font-size="12" font-weight="600" fill="#7E718D">Four of Swords</text>
  
  <text x="50" y="125" text-anchor="middle" font-family="Georgia,serif" font-size="32" font-weight="700" fill="#7F84A8">4</text>
  <text x="270" y="410" text-anchor="middle" font-family="Georgia,serif" font-size="32" font-weight="700" fill="#7F84A8">4</text>
  <circle cx="160" cy="252" r="102" fill="#7F84A8" opacity=".07"/>
  <rect x="76" y="132" width="168" height="236" rx="32" fill="rgba(255,255,255,.44)" stroke="#7F84A8" stroke-width="1.5" opacity=".74"/>
  <g opacity="0.95"><path d="M116 195L126 233L116 253L106 233Z" fill="none" stroke="#7F84A8" stroke-width="3" stroke-linejoin="round"/><path d="M98 231h36" stroke="#C99B52" stroke-width="4" stroke-linecap="round"/></g>
<g opacity="0.95"><path d="M160 195L170 233L160 253L150 233Z" fill="none" stroke="#7F84A8" stroke-width="3" stroke-linejoin="round"/><path d="M142 231h36" stroke="#C99B52" stroke-width="4" stroke-linecap="round"/></g>
<g opacity="0.95"><path d="M204 195L214 233L204 253L194 233Z" fill="none" stroke="#7F84A8" stroke-width="3" stroke-linejoin="round"/><path d="M186 231h36" stroke="#C99B52" stroke-width="4" stroke-linecap="round"/></g>
<g opacity="0.95"><path d="M116 249L126 287L116 307L106 287Z" fill="none" stroke="#7F84A8" stroke-width="3" stroke-linejoin="round"/><path d="M98 285h36" stroke="#C99B52" stroke-width="4" stroke-linecap="round"/></g>
  
  <text x="160" y="398" text-anchor="middle" font-family="-apple-system,BlinkMacSystemFont,Segoe UI,sans-serif" font-size="14" font-weight="700" fill="#6A5F77">休整 · 安全感</text>
  <text x="160" y="448" text-anchor="middle" font-family="-apple-system,BlinkMacSystemFont,Segoe UI,sans-serif" font-size="13" font-weight="700" fill="#7F84A8">小阿卡那</text>
  <text x="160" y="474" text-anchor="middle" font-family="-apple-system,BlinkMacSystemFont,Segoe UI,sans-serif" font-size="16" font-weight="700" fill="#5C5368">思考稳定</text>
  <defs>
    <linearGradient id="paper" x1="22" y1="18" x2="302" y2="510" gradientUnits="userSpaceOnUse">
      <stop stop-color="#FFFDF8"/>
      <stop offset=".52" stop-color="#F8EEF7"/>
      <stop offset="1" stop-color="#EAF4FF"/>
    </linearGradient>
    <linearGradient id="edge" x1="14" y1="10" x2="310" y2="510" gradientUnits="userSpaceOnUse">
      <stop stop-color="#FFF8E8"/>
      <stop offset=".5" stop-color="#F8DFA7"/>
      <stop offset="1" stop-color="#7F84A8"/>
    </linearGradient>
  </defs>
</svg>