<svg width="320" height="520" viewBox="0 0 320 520" fill="none" xmlns="http://www.w3.org/2000/svg" role="img" aria-label="宝剑九">
  <rect x="10" y="10" width="300" height="500" rx="30" fill="url(#paper)" stroke="url(#edge)" stroke-width="2"/>
  <rect x="28" y="28" width="264" height="464" rx="22" fill="rgba(255,255,255,.34)" stroke="rgba(255,255,255,.72)"/>
  <circle cx="56" cy="74" r="22" fill="#7F84A8" opacity=".14"/>
  <circle cx="264" cy="446" r="30" fill="#F8DFA7" opacity=".18"/>
  <text x="160" y="62" text-anchor="middle" font-family="-apple-system,BlinkMacSystemFont,Segoe UI,sans-serif" font-size="22" font-weight="700" fill="#2C2439">宝剑九</text>
  <text x="160" y="86" text-anchor="middle" font-family="-apple-system,BlinkMacSystemFont,Segoe UI,sans-serif" font-size="12" font-weight="600" fill="#7E718D">Nine of Swords</text>
  
  <text x="50" y="125" text-anchor="middle" font-family="Georgia,serif" font-size="32" font-weight="700" fill="#7F84A8">9</text>
  <text x="270" y="410" text-anchor="middle" font-family="Georgia,serif" font-size="32" font-weight="700" fill="#7F84A8">9</text>
  <circle cx="160" cy="252" r="102" fill="#7F84A8" opacity=".07"/>
  <rect x="76" y="132" width="168" height="236" rx="32" fill="rgba(255,255,255,.44)" stroke="#7F84A8" stroke-width="1.5" opacity=".74"/>
  <g opacity="0.95"><path d="M94 168L104 206L94 226L84 206Z" fill="none" stroke="#7F84A8" stroke-width="3" stroke-linejoin="round"/><path d="M76 204h36" stroke="#C99B52" stroke-width="4" stroke-linecap="round"/></g>
<g opacity="0.95"><path d="M138 168L148 206L138 226L128 206Z" fill="none" stroke="#7F84A8" stroke-width="3" stroke-linejoin="round"/><path d="M120 204h36" stroke="#C99B52" stroke-width="4" stroke-linecap="round"/></g>
<g opacity="0.95"><path d="M182 168L192 206L182 226L172 206Z" fill="none" stroke="#7F84A8" stroke-width="3" stroke-linejoin="round"/><path d="M164 204h36" stroke="#C99B52" stroke-width="4" stroke-linecap="round"/></g>
<g opacity="0.95"><path d="M226 168L236 206L226 226L216 206Z" fill="none" stroke="#7F84A8" stroke-width="3" stroke-linejoin="round"/><path d="M208 204h36" stroke="#C99B52" stroke-width="4" stroke-linecap="round"/></g>
<g opacity="0.95"><path d="M94 222L104 260L94 280L84 260Z" fill="none" stroke="#7F84A8" stroke-width="3" stroke-linejoin="round"/><path d="M76 258h36" stroke="#C99B52" stroke-width="4" stroke-linecap="round"/></g>
<g opacity="0.95"><path d="M138 222L148 260L138 280L128 260Z" fill="none" stroke="#7F84A8" stroke-width="3" stroke-linejoin="round"/><path d="M120 258h36" stroke="#C99B52" stroke-width="4" stroke-linecap="round"/></g>
<g opacity="0.95"><path d="M182 222L192 260L182 280L172 260Z" fill="none" stroke="#7F84A8" stroke-width="3" stroke-linejoin="round"/><path d="M164 258h36" stroke="#C99B52" stroke-width="4" stroke-linecap="round"/></g>
<g opacity="0.95"><path d="M226 222L236 260L226 280L216 260Z" fill="none" stroke="#7F84A8" stroke-width="3" stroke-linejoin="round"/><path d="M208 258h36" stroke="#C99B52" stroke-width="4" stroke-linecap="round"/></g>
<g opacity="0.95"><path d="M94 276L104 314L94 334L84 314Z" fill="none" stroke="#7F84A8" stroke-width="3" stroke-linejoin="round"/><path d="M76 312h36" stroke="#C99B52" stroke-width="4" stroke-linecap="round"/></g>
  
  <text x="160" y="398" text-anchor="middle" font-family="-apple-system,BlinkMacSystemFont,Segoe UI,sans-serif" font-size="14" font-weight="700" fill="#6A5F77">独立 · 临近完成</text>
  <text x="160" y="448" text-anchor="middle" font-family="-apple-system,BlinkMacSystemFont,Segoe UI,sans-serif" font-size="13" font-weight="700" fill="#7F84A8">小阿卡那</text>
  <text x="160" y="474" text-anchor="middle" font-family="-apple-system,BlinkMacSystemFont,Segoe UI,sans-serif" font-size="16" font-weight="700" fill="#5C5368">思考积累</text>
  <defs>
    <linearGradient id="paper" x1="22" y1="18" x2="302" y2="510" gradientUnits="userSpaceOnUse">
      <stop stop-color="#FFFDF8"/>
      <stop offset=".52" stop-color="#F8EEF7"/>
      <stop offset="1" stop-color="#EAF4FF"/>
    </linearGradient>
    <linearGradient id="edge" x1="14" y1="10" x2="310" y2="510" gradientUnits="userSpaceOnUse">
      <stop stop-color="#FFF8E8"/>
      <stop offset=".5" stop-color="#F8DFA7"/>
      <stop offset="1" stop-color="#7F84A8"/>
    </linearGradient>
  </defs>
</svg>