<svg width="320" height="520" viewBox="0 0 320 520" fill="none" xmlns="http://www.w3.org/2000/svg" role="img" aria-label="节制">
  <rect x="10" y="10" width="300" height="500" rx="30" fill="url(#paper)" stroke="url(#edge)" stroke-width="2"/>
  <rect x="28" y="28" width="264" height="464" rx="22" fill="rgba(255,255,255,.30)" stroke="rgba(255,255,255,.7)"/>
  <circle cx="56" cy="74" r="22" fill="#9A78C9" opacity=".14"/>
  <circle cx="264" cy="446" r="30" fill="#F8DFA7" opacity=".2"/>
  <text x="160" y="62" text-anchor="middle" font-family="-apple-system,BlinkMacSystemFont,Segoe UI,sans-serif" font-size="22" font-weight="700" fill="#2C2439">节制</text>
  <text x="160" y="86" text-anchor="middle" font-family="-apple-system,BlinkMacSystemFont,Segoe UI,sans-serif" font-size="12" font-weight="600" fill="#7E718D">Temperance</text>
  <clipPath id="win"><rect x="46" y="100" width="228" height="256" rx="18"/></clipPath>
  <g clip-path="url(#win)">
    <rect x="46" y="100" width="228" height="256" fill="url(#sky)"/>
    <circle cx="160" cy="112" r="150" fill="#9A78C9" opacity=".05"/><path d="M46 296 L96 250 L138 284 L190 240 L244 288 L274 296 Z" fill="#a7adcf" opacity="0.4"/><rect x="46" y="320" width="228" height="36" fill="#8fb3df" opacity="0.45"/><path d="M46 332 q24 -7 48 0 t48 0 t48 0 t48 0 t48 0" fill="none" stroke="#fff" stroke-width="1.4" opacity=".5"/><path d="M46 344 q24 -7 48 0 t48 0 t48 0 t48 0 t48 0" fill="none" stroke="#fff" stroke-width="1.4" opacity=".5"/><path d="M46 356 q24 -7 48 0 t48 0 t48 0 t48 0 t48 0" fill="none" stroke="#fff" stroke-width="1.4" opacity=".5"/><g opacity=".92"><line x1="257" y1="138" x2="270" y2="138" stroke="#F8DFA7" stroke-width="3" stroke-linecap="round"/><line x1="254.72" y1="146.5" x2="265.98" y2="153" stroke="#F8DFA7" stroke-width="3" stroke-linecap="round"/><line x1="248.5" y1="152.72" x2="255" y2="163.98" stroke="#F8DFA7" stroke-width="3" stroke-linecap="round"/><line x1="240" y1="155" x2="240" y2="168" stroke="#F8DFA7" stroke-width="3" stroke-linecap="round"/><line x1="231.5" y1="152.72" x2="225" y2="163.98" stroke="#F8DFA7" stroke-width="3" stroke-linecap="round"/><line x1="225.28" y1="146.5" x2="214.02" y2="153" stroke="#F8DFA7" stroke-width="3" stroke-linecap="round"/><line x1="223" y1="138" x2="210" y2="138" stroke="#F8DFA7" stroke-width="3" stroke-linecap="round"/><line x1="225.28" y1="129.5" x2="214.02" y2="123" stroke="#F8DFA7" stroke-width="3" stroke-linecap="round"/><line x1="231.5" y1="123.28" x2="225" y2="112.02" stroke="#F8DFA7" stroke-width="3" stroke-linecap="round"/><line x1="240" y1="121" x2="240" y2="108" stroke="#F8DFA7" stroke-width="3" stroke-linecap="round"/><line x1="248.5" y1="123.28" x2="255" y2="112.02" stroke="#F8DFA7" stroke-width="3" stroke-linecap="round"/><line x1="254.72" y1="129.5" x2="265.98" y2="123" stroke="#F8DFA7" stroke-width="3" stroke-linecap="round"/><circle cx="240" cy="138" r="12" fill="#F8DFA7" opacity=".5"/><circle cx="240" cy="138" r="12" fill="none" stroke="#F8DFA7" stroke-width="2"/></g>
    <g>
    <path d="M126.72 308 C131.84 220.96 144.64 212.26 160 212.26 C175.36 212.26 188.16 220.96 193.28 308 Z" fill="#cf8aa6" opacity=".88"/>
    <circle cx="160" cy="195.36" r="15.36" fill="#EAC9A6"/>
  </g>
    <path d="M156 222 q-10 14 -22 24" fill="none" stroke="#8fb3df" stroke-width="3"/>
    <g fill="#6D8FD7" opacity=".85"><path d="M121.6 230.4 Q130 244.4 138.4 230.4 Z"/>
      <rect x="128.6 " y="238.8" width="2.8" height="7"/>
      <rect x="123.7" y="245.8" width="12.6" height="2.8" rx="2"/>
      <ellipse cx="130" cy="230.4" rx="8.399999999999999" ry="2.38" fill="#fff" opacity=".55"/></g><g fill="#6D8FD7" opacity=".85"><path d="M177.6 250.4 Q186 264.4 194.4 250.4 Z"/>
      <rect x="184.6 " y="258.8" width="2.8" height="7"/>
      <rect x="179.7" y="265.8" width="12.6" height="2.8" rx="2"/>
      <ellipse cx="186" cy="250.4" rx="8.399999999999999" ry="2.38" fill="#fff" opacity=".55"/></g>
    <path d="M138 246 q14 8 30 14" fill="none" stroke="#8fb3df" stroke-width="2"/></g><rect x="46" y="100" width="228" height="256" rx="18" fill="none" stroke="rgba(255,255,255,.7)" stroke-width="1.5"/>
  <text x="160" y="402" text-anchor="middle" font-family="-apple-system,BlinkMacSystemFont,Segoe UI,sans-serif" font-size="14" font-weight="700" fill="#6A5F77">调和 · 节奏</text>
  <text x="160" y="446" text-anchor="middle" font-family="-apple-system,BlinkMacSystemFont,Segoe UI,sans-serif" font-size="13" font-weight="700" fill="#9A78C9">大阿卡那</text>
  <text x="160" y="474" text-anchor="middle" font-family="-apple-system,BlinkMacSystemFont,Segoe UI,sans-serif" font-size="16" font-weight="700" fill="#5C5368">疗愈</text>
  <defs>
    <linearGradient id="paper" x1="22" y1="18" x2="302" y2="510" gradientUnits="userSpaceOnUse">
      <stop stop-color="#FFFDF8"/><stop offset=".52" stop-color="#F8EEF7"/><stop offset="1" stop-color="#EAF4FF"/>
    </linearGradient>
    <linearGradient id="edge" x1="14" y1="10" x2="310" y2="510" gradientUnits="userSpaceOnUse">
      <stop stop-color="#FFF8E8"/><stop offset=".5" stop-color="#F8DFA7"/><stop offset="1" stop-color="#9A78C9"/>
    </linearGradient>
    <linearGradient id="sky" x1="0" y1="100" x2="0" y2="356" gradientUnits="userSpaceOnUse">
      <stop stop-color="#FBF6FF"/><stop offset="1" stop-color="#EAF1FF"/>
    </linearGradient>
  </defs>
</svg>