<svg width="320" height="520" viewBox="0 0 320 520" fill="none" xmlns="http://www.w3.org/2000/svg" role="img" aria-label="权杖九">
  <rect x="10" y="10" width="300" height="500" rx="30" fill="url(#paper)" stroke="url(#edge)" stroke-width="2"/>
  <rect x="28" y="28" width="264" height="464" rx="22" fill="rgba(255,255,255,.30)" stroke="rgba(255,255,255,.7)"/>
  <circle cx="56" cy="74" r="22" fill="#C56B74" opacity=".14"/>
  <circle cx="264" cy="446" r="30" fill="#F8DFA7" opacity=".2"/>
  <text x="160" y="62" text-anchor="middle" font-family="-apple-system,BlinkMacSystemFont,Segoe UI,sans-serif" font-size="22" font-weight="700" fill="#2C2439">权杖九</text>
  <text x="160" y="86" text-anchor="middle" font-family="-apple-system,BlinkMacSystemFont,Segoe UI,sans-serif" font-size="12" font-weight="600" fill="#7E718D">Nine of Wands</text>
  <clipPath id="win"><rect x="46" y="100" width="228" height="256" rx="18"/></clipPath>
  <g clip-path="url(#win)">
    <rect x="46" y="100" width="228" height="256" fill="url(#sky)"/>
    <circle cx="160" cy="112" r="150" fill="#C56B74" opacity=".05"/><path d="M46 296 L96 250 L138 284 L190 240 L244 288 L274 296 Z" fill="#c7bda0" opacity="0.3"/><rect x="46" y="296" width="228" height="60" fill="#d9c7a0" opacity="0.45"/><g><line x1="102" y1="133.2" x2="102" y2="166.8" stroke="#C56B74" stroke-width="2.8" stroke-linecap="round"/>
      <circle cx="102" cy="133.2" r="2.0999999999999996" fill="#7fae6f"/>
      <path d="M102 143 q5.6 -2.8 7 2.8" fill="none" stroke="#7fae6f" stroke-width="1.4"/>
      <path d="M102 152.8 q-5.6 -2.8 -7 2.8" fill="none" stroke="#7fae6f" stroke-width="1.4"/></g><g><line x1="160" y1="133.2" x2="160" y2="166.8" stroke="#C56B74" stroke-width="2.8" stroke-linecap="round"/>
      <circle cx="160" cy="133.2" r="2.0999999999999996" fill="#7fae6f"/>
      <path d="M160 143 q5.6 -2.8 7 2.8" fill="none" stroke="#7fae6f" stroke-width="1.4"/>
      <path d="M160 152.8 q-5.6 -2.8 -7 2.8" fill="none" stroke="#7fae6f" stroke-width="1.4"/></g><g><line x1="218" y1="133.2" x2="218" y2="166.8" stroke="#C56B74" stroke-width="2.8" stroke-linecap="round"/>
      <circle cx="218" cy="133.2" r="2.0999999999999996" fill="#7fae6f"/>
      <path d="M218 143 q5.6 -2.8 7 2.8" fill="none" stroke="#7fae6f" stroke-width="1.4"/>
      <path d="M218 152.8 q-5.6 -2.8 -7 2.8" fill="none" stroke="#7fae6f" stroke-width="1.4"/></g><g><line x1="102" y1="207.2" x2="102" y2="240.8" stroke="#C56B74" stroke-width="2.8" stroke-linecap="round"/>
      <circle cx="102" cy="207.2" r="2.0999999999999996" fill="#7fae6f"/>
      <path d="M102 217 q5.6 -2.8 7 2.8" fill="none" stroke="#7fae6f" stroke-width="1.4"/>
      <path d="M102 226.8 q-5.6 -2.8 -7 2.8" fill="none" stroke="#7fae6f" stroke-width="1.4"/></g><g><line x1="160" y1="207.2" x2="160" y2="240.8" stroke="#C56B74" stroke-width="2.8" stroke-linecap="round"/>
      <circle cx="160" cy="207.2" r="2.0999999999999996" fill="#7fae6f"/>
      <path d="M160 217 q5.6 -2.8 7 2.8" fill="none" stroke="#7fae6f" stroke-width="1.4"/>
      <path d="M160 226.8 q-5.6 -2.8 -7 2.8" fill="none" stroke="#7fae6f" stroke-width="1.4"/></g><g><line x1="218" y1="207.2" x2="218" y2="240.8" stroke="#C56B74" stroke-width="2.8" stroke-linecap="round"/>
      <circle cx="218" cy="207.2" r="2.0999999999999996" fill="#7fae6f"/>
      <path d="M218 217 q5.6 -2.8 7 2.8" fill="none" stroke="#7fae6f" stroke-width="1.4"/>
      <path d="M218 226.8 q-5.6 -2.8 -7 2.8" fill="none" stroke="#7fae6f" stroke-width="1.4"/></g><g><line x1="102" y1="281.2" x2="102" y2="314.8" stroke="#C56B74" stroke-width="2.8" stroke-linecap="round"/>
      <circle cx="102" cy="281.2" r="2.0999999999999996" fill="#7fae6f"/>
      <path d="M102 291 q5.6 -2.8 7 2.8" fill="none" stroke="#7fae6f" stroke-width="1.4"/>
      <path d="M102 300.8 q-5.6 -2.8 -7 2.8" fill="none" stroke="#7fae6f" stroke-width="1.4"/></g><g><line x1="160" y1="281.2" x2="160" y2="314.8" stroke="#C56B74" stroke-width="2.8" stroke-linecap="round"/>
      <circle cx="160" cy="281.2" r="2.0999999999999996" fill="#7fae6f"/>
      <path d="M160 291 q5.6 -2.8 7 2.8" fill="none" stroke="#7fae6f" stroke-width="1.4"/>
      <path d="M160 300.8 q-5.6 -2.8 -7 2.8" fill="none" stroke="#7fae6f" stroke-width="1.4"/></g><g><line x1="218" y1="281.2" x2="218" y2="314.8" stroke="#C56B74" stroke-width="2.8" stroke-linecap="round"/>
      <circle cx="218" cy="281.2" r="2.0999999999999996" fill="#7fae6f"/>
      <path d="M218 291 q5.6 -2.8 7 2.8" fill="none" stroke="#7fae6f" stroke-width="1.4"/>
      <path d="M218 300.8 q-5.6 -2.8 -7 2.8" fill="none" stroke="#7fae6f" stroke-width="1.4"/></g></g><rect x="46" y="100" width="228" height="256" rx="18" fill="none" stroke="rgba(255,255,255,.7)" stroke-width="1.5"/>
  <text x="160" y="402" text-anchor="middle" font-family="-apple-system,BlinkMacSystemFont,Segoe UI,sans-serif" font-size="14" font-weight="700" fill="#6A5F77">韧性与警觉 · 接近终点</text>
  <text x="160" y="446" text-anchor="middle" font-family="-apple-system,BlinkMacSystemFont,Segoe UI,sans-serif" font-size="13" font-weight="700" fill="#C56B74">小阿卡那</text>
  <text x="160" y="474" text-anchor="middle" font-family="-apple-system,BlinkMacSystemFont,Segoe UI,sans-serif" font-size="16" font-weight="700" fill="#5C5368">带伤坚守</text>
  <defs>
    <linearGradient id="paper" x1="22" y1="18" x2="302" y2="510" gradientUnits="userSpaceOnUse">
      <stop stop-color="#FFFDF8"/><stop offset=".52" stop-color="#F8EEF7"/><stop offset="1" stop-color="#EAF4FF"/>
    </linearGradient>
    <linearGradient id="edge" x1="14" y1="10" x2="310" y2="510" gradientUnits="userSpaceOnUse">
      <stop stop-color="#FFF8E8"/><stop offset=".5" stop-color="#F8DFA7"/><stop offset="1" stop-color="#C56B74"/>
    </linearGradient>
    <linearGradient id="sky" x1="0" y1="100" x2="0" y2="356" gradientUnits="userSpaceOnUse">
      <stop stop-color="#FBF6FF"/><stop offset="1" stop-color="#EAF1FF"/>
    </linearGradient>
  </defs>
</svg>