<svg width="320" height="520" viewBox="0 0 320 520" fill="none" xmlns="http://www.w3.org/2000/svg" role="img" aria-label="权杖十">
  <rect x="10" y="10" width="300" height="500" rx="30" fill="url(#paper)" stroke="url(#edge)" stroke-width="2"/>
  <rect x="28" y="28" width="264" height="464" rx="22" fill="rgba(255,255,255,.30)" stroke="rgba(255,255,255,.7)"/>
  <circle cx="56" cy="74" r="22" fill="#C56B74" opacity=".14"/>
  <circle cx="264" cy="446" r="30" fill="#F8DFA7" opacity=".2"/>
  <text x="160" y="62" text-anchor="middle" font-family="-apple-system,BlinkMacSystemFont,Segoe UI,sans-serif" font-size="22" font-weight="700" fill="#2C2439">权杖十</text>
  <text x="160" y="86" text-anchor="middle" font-family="-apple-system,BlinkMacSystemFont,Segoe UI,sans-serif" font-size="12" font-weight="600" fill="#7E718D">Ten of Wands</text>
  <clipPath id="win"><rect x="46" y="100" width="228" height="256" rx="18"/></clipPath>
  <g clip-path="url(#win)">
    <rect x="46" y="100" width="228" height="256" fill="url(#sky)"/>
    <circle cx="160" cy="112" r="150" fill="#C56B74" opacity=".05"/><rect x="46" y="296" width="228" height="60" fill="#d6cbaf" opacity="0.5"/><g>
    <path d="M131.4 320 C135.8 245.2 146.8 237.72 160 237.72 C173.2 237.72 184.2 245.2 188.6 320 Z" fill="#C56B74" opacity=".88"/>
    <circle cx="160" cy="223.2" r="13.2" fill="#EAC9A6"/>
  </g>
    <g transform="rotate(-16 160 230)"><line x1="124" y1="200" x2="124" y2="260" stroke="#C56B74" stroke-width="3" stroke-linecap="round"/><line x1="132" y1="200" x2="132" y2="260" stroke="#C56B74" stroke-width="3" stroke-linecap="round"/><line x1="140" y1="200" x2="140" y2="260" stroke="#C56B74" stroke-width="3" stroke-linecap="round"/><line x1="148" y1="200" x2="148" y2="260" stroke="#C56B74" stroke-width="3" stroke-linecap="round"/><line x1="156" y1="200" x2="156" y2="260" stroke="#C56B74" stroke-width="3" stroke-linecap="round"/><line x1="164" y1="200" x2="164" y2="260" stroke="#C56B74" stroke-width="3" stroke-linecap="round"/><line x1="172" y1="200" x2="172" y2="260" stroke="#C56B74" stroke-width="3" stroke-linecap="round"/><line x1="180" y1="200" x2="180" y2="260" stroke="#C56B74" stroke-width="3" stroke-linecap="round"/><line x1="188" y1="200" x2="188" y2="260" stroke="#C56B74" stroke-width="3" stroke-linecap="round"/><line x1="196" y1="200" x2="196" y2="260" stroke="#C56B74" stroke-width="3" stroke-linecap="round"/></g></g><rect x="46" y="100" width="228" height="256" rx="18" fill="none" stroke="rgba(255,255,255,.7)" stroke-width="1.5"/>
  <text x="160" y="402" text-anchor="middle" font-family="-apple-system,BlinkMacSystemFont,Segoe UI,sans-serif" font-size="14" font-weight="700" fill="#6A5F77">责任加重 · 压力峰值</text>
  <text x="160" y="446" text-anchor="middle" font-family="-apple-system,BlinkMacSystemFont,Segoe UI,sans-serif" font-size="13" font-weight="700" fill="#C56B74">小阿卡那</text>
  <text x="160" y="474" text-anchor="middle" font-family="-apple-system,BlinkMacSystemFont,Segoe UI,sans-serif" font-size="16" font-weight="700" fill="#5C5368">扛下太多</text>
  <defs>
    <linearGradient id="paper" x1="22" y1="18" x2="302" y2="510" gradientUnits="userSpaceOnUse">
      <stop stop-color="#FFFDF8"/><stop offset=".52" stop-color="#F8EEF7"/><stop offset="1" stop-color="#EAF4FF"/>
    </linearGradient>
    <linearGradient id="edge" x1="14" y1="10" x2="310" y2="510" gradientUnits="userSpaceOnUse">
      <stop stop-color="#FFF8E8"/><stop offset=".5" stop-color="#F8DFA7"/><stop offset="1" stop-color="#C56B74"/>
    </linearGradient>
    <linearGradient id="sky" x1="0" y1="100" x2="0" y2="356" gradientUnits="userSpaceOnUse">
      <stop stop-color="#FBF6FF"/><stop offset="1" stop-color="#EAF1FF"/>
    </linearGradient>
  </defs>
</svg>