<svg width="320" height="520" viewBox="0 0 320 520" fill="none" xmlns="http://www.w3.org/2000/svg" role="img" aria-label="权杖八">
  <rect x="10" y="10" width="300" height="500" rx="30" fill="url(#paper)" stroke="url(#edge)" stroke-width="2"/>
  <rect x="28" y="28" width="264" height="464" rx="22" fill="rgba(255,255,255,.30)" stroke="rgba(255,255,255,.7)"/>
  <circle cx="56" cy="74" r="22" fill="#C56B74" opacity=".14"/>
  <circle cx="264" cy="446" r="30" fill="#F8DFA7" opacity=".2"/>
  <text x="160" y="62" text-anchor="middle" font-family="-apple-system,BlinkMacSystemFont,Segoe UI,sans-serif" font-size="22" font-weight="700" fill="#2C2439">权杖八</text>
  <text x="160" y="86" text-anchor="middle" font-family="-apple-system,BlinkMacSystemFont,Segoe UI,sans-serif" font-size="12" font-weight="600" fill="#7E718D">Eight of Wands</text>
  <clipPath id="win"><rect x="46" y="100" width="228" height="256" rx="18"/></clipPath>
  <g clip-path="url(#win)">
    <rect x="46" y="100" width="228" height="256" fill="url(#sky)"/>
    <circle cx="160" cy="112" r="150" fill="#C56B74" opacity=".05"/><path d="M46 296 L96 250 L138 284 L190 240 L244 288 L274 296 Z" fill="#c7bda0" opacity="0.3"/><rect x="46" y="296" width="228" height="60" fill="#d9c7a0" opacity="0.45"/><g><line x1="110" y1="128.32" x2="110" y2="167.68" stroke="#C56B74" stroke-width="3.28" stroke-linecap="round"/>
      <circle cx="110" cy="128.32" r="2.46" fill="#7fae6f"/>
      <path d="M110 139.8 q6.56 -3.28 8.2 3.28" fill="none" stroke="#7fae6f" stroke-width="1.64"/>
      <path d="M110 151.28 q-6.56 -3.28 -8.2 3.28" fill="none" stroke="#7fae6f" stroke-width="1.64"/></g><g><line x1="210" y1="128.32" x2="210" y2="167.68" stroke="#C56B74" stroke-width="3.28" stroke-linecap="round"/>
      <circle cx="210" cy="128.32" r="2.46" fill="#7fae6f"/>
      <path d="M210 139.8 q6.56 -3.28 8.2 3.28" fill="none" stroke="#7fae6f" stroke-width="1.64"/>
      <path d="M210 151.28 q-6.56 -3.28 -8.2 3.28" fill="none" stroke="#7fae6f" stroke-width="1.64"/></g><g><line x1="110" y1="186.32" x2="110" y2="225.68" stroke="#C56B74" stroke-width="3.28" stroke-linecap="round"/>
      <circle cx="110" cy="186.32" r="2.46" fill="#7fae6f"/>
      <path d="M110 197.8 q6.56 -3.28 8.2 3.28" fill="none" stroke="#7fae6f" stroke-width="1.64"/>
      <path d="M110 209.28 q-6.56 -3.28 -8.2 3.28" fill="none" stroke="#7fae6f" stroke-width="1.64"/></g><g><line x1="210" y1="186.32" x2="210" y2="225.68" stroke="#C56B74" stroke-width="3.28" stroke-linecap="round"/>
      <circle cx="210" cy="186.32" r="2.46" fill="#7fae6f"/>
      <path d="M210 197.8 q6.56 -3.28 8.2 3.28" fill="none" stroke="#7fae6f" stroke-width="1.64"/>
      <path d="M210 209.28 q-6.56 -3.28 -8.2 3.28" fill="none" stroke="#7fae6f" stroke-width="1.64"/></g><g><line x1="110" y1="244.32" x2="110" y2="283.68" stroke="#C56B74" stroke-width="3.28" stroke-linecap="round"/>
      <circle cx="110" cy="244.32" r="2.46" fill="#7fae6f"/>
      <path d="M110 255.8 q6.56 -3.28 8.2 3.28" fill="none" stroke="#7fae6f" stroke-width="1.64"/>
      <path d="M110 267.28 q-6.56 -3.28 -8.2 3.28" fill="none" stroke="#7fae6f" stroke-width="1.64"/></g><g><line x1="210" y1="244.32" x2="210" y2="283.68" stroke="#C56B74" stroke-width="3.28" stroke-linecap="round"/>
      <circle cx="210" cy="244.32" r="2.46" fill="#7fae6f"/>
      <path d="M210 255.8 q6.56 -3.28 8.2 3.28" fill="none" stroke="#7fae6f" stroke-width="1.64"/>
      <path d="M210 267.28 q-6.56 -3.28 -8.2 3.28" fill="none" stroke="#7fae6f" stroke-width="1.64"/></g><g><line x1="110" y1="300.32" x2="110" y2="339.68" stroke="#C56B74" stroke-width="3.28" stroke-linecap="round"/>
      <circle cx="110" cy="300.32" r="2.46" fill="#7fae6f"/>
      <path d="M110 311.8 q6.56 -3.28 8.2 3.28" fill="none" stroke="#7fae6f" stroke-width="1.64"/>
      <path d="M110 323.28 q-6.56 -3.28 -8.2 3.28" fill="none" stroke="#7fae6f" stroke-width="1.64"/></g><g><line x1="210" y1="300.32" x2="210" y2="339.68" stroke="#C56B74" stroke-width="3.28" stroke-linecap="round"/>
      <circle cx="210" cy="300.32" r="2.46" fill="#7fae6f"/>
      <path d="M210 311.8 q6.56 -3.28 8.2 3.28" fill="none" stroke="#7fae6f" stroke-width="1.64"/>
      <path d="M210 323.28 q-6.56 -3.28 -8.2 3.28" fill="none" stroke="#7fae6f" stroke-width="1.64"/></g></g><rect x="46" y="100" width="228" height="256" rx="18" fill="none" stroke="rgba(255,255,255,.7)" stroke-width="1.5"/>
  <text x="160" y="402" text-anchor="middle" font-family="-apple-system,BlinkMacSystemFont,Segoe UI,sans-serif" font-size="14" font-weight="700" fill="#6A5F77">迅速推进 · 消息到来</text>
  <text x="160" y="446" text-anchor="middle" font-family="-apple-system,BlinkMacSystemFont,Segoe UI,sans-serif" font-size="13" font-weight="700" fill="#C56B74">小阿卡那</text>
  <text x="160" y="474" text-anchor="middle" font-family="-apple-system,BlinkMacSystemFont,Segoe UI,sans-serif" font-size="16" font-weight="700" fill="#5C5368">动能加速</text>
  <defs>
    <linearGradient id="paper" x1="22" y1="18" x2="302" y2="510" gradientUnits="userSpaceOnUse">
      <stop stop-color="#FFFDF8"/><stop offset=".52" stop-color="#F8EEF7"/><stop offset="1" stop-color="#EAF4FF"/>
    </linearGradient>
    <linearGradient id="edge" x1="14" y1="10" x2="310" y2="510" gradientUnits="userSpaceOnUse">
      <stop stop-color="#FFF8E8"/><stop offset=".5" stop-color="#F8DFA7"/><stop offset="1" stop-color="#C56B74"/>
    </linearGradient>
    <linearGradient id="sky" x1="0" y1="100" x2="0" y2="356" gradientUnits="userSpaceOnUse">
      <stop stop-color="#FBF6FF"/><stop offset="1" stop-color="#EAF1FF"/>
    </linearGradient>
  </defs>
</svg>