<svg width="320" height="520" viewBox="0 0 320 520" fill="none" xmlns="http://www.w3.org/2000/svg" role="img" aria-label="命运之轮">
  <rect x="10" y="10" width="300" height="500" rx="30" fill="url(#paper)" stroke="url(#edge)" stroke-width="2"/>
  <rect x="28" y="28" width="264" height="464" rx="22" fill="rgba(255,255,255,.30)" stroke="rgba(255,255,255,.7)"/>
  <circle cx="56" cy="74" r="22" fill="#9A78C9" opacity=".14"/>
  <circle cx="264" cy="446" r="30" fill="#F8DFA7" opacity=".2"/>
  <text x="160" y="62" text-anchor="middle" font-family="-apple-system,BlinkMacSystemFont,Segoe UI,sans-serif" font-size="22" font-weight="700" fill="#2C2439">命运之轮</text>
  <text x="160" y="86" text-anchor="middle" font-family="-apple-system,BlinkMacSystemFont,Segoe UI,sans-serif" font-size="12" font-weight="600" fill="#7E718D">Wheel of Fortune</text>
  <clipPath id="win"><rect x="46" y="100" width="228" height="256" rx="18"/></clipPath>
  <g clip-path="url(#win)">
    <rect x="46" y="100" width="228" height="256" fill="url(#sky)"/>
    <circle cx="160" cy="112" r="150" fill="#9A78C9" opacity=".05"/><path d="M76 135 L77.32 138.18 L80.76 138.45 L78.14 140.7 L78.94 144.05 L76 142.25 L73.06 144.05 L73.86 140.7 L71.24 138.45 L74.68 138.18 Z" fill="#F8DFA7" opacity=".9"/><path d="M244 135 L245.32 138.18 L248.76 138.45 L246.14 140.7 L246.94 144.05 L244 142.25 L241.06 144.05 L241.86 140.7 L239.24 138.45 L242.68 138.18 Z" fill="#F8DFA7" opacity=".9"/>
    <circle cx="160" cy="228" r="62" fill="none" stroke="#C99B52" stroke-width="3" opacity=".8"/>
    <circle cx="160" cy="228" r="40" fill="#9A78C9" opacity=".12"/>
    <g stroke="#C99B52" stroke-width="2" opacity=".7"><line x1="182" y1="228" x2="220" y2="228"/><line x1="175.56" y1="243.56" x2="202.43" y2="270.43"/><line x1="160" y1="250" x2="160" y2="288"/><line x1="144.44" y1="243.56" x2="117.57" y2="270.43"/><line x1="138" y1="228" x2="100" y2="228"/><line x1="144.44" y1="212.44" x2="117.57" y2="185.57"/><line x1="160" y1="206" x2="160" y2="168"/><line x1="175.56" y1="212.44" x2="202.43" y2="185.57"/></g>
    <text x="160" y="236" text-anchor="middle" font-size="22" fill="#C99B52">∞</text></g><rect x="46" y="100" width="228" height="256" rx="18" fill="none" stroke="rgba(255,255,255,.7)" stroke-width="1.5"/>
  <text x="160" y="402" text-anchor="middle" font-family="-apple-system,BlinkMacSystemFont,Segoe UI,sans-serif" font-size="14" font-weight="700" fill="#6A5F77">转机 · 周期</text>
  <text x="160" y="446" text-anchor="middle" font-family="-apple-system,BlinkMacSystemFont,Segoe UI,sans-serif" font-size="13" font-weight="700" fill="#9A78C9">大阿卡那</text>
  <text x="160" y="474" text-anchor="middle" font-family="-apple-system,BlinkMacSystemFont,Segoe UI,sans-serif" font-size="16" font-weight="700" fill="#5C5368">变化</text>
  <defs>
    <linearGradient id="paper" x1="22" y1="18" x2="302" y2="510" gradientUnits="userSpaceOnUse">
      <stop stop-color="#FFFDF8"/><stop offset=".52" stop-color="#F8EEF7"/><stop offset="1" stop-color="#EAF4FF"/>
    </linearGradient>
    <linearGradient id="edge" x1="14" y1="10" x2="310" y2="510" gradientUnits="userSpaceOnUse">
      <stop stop-color="#FFF8E8"/><stop offset=".5" stop-color="#F8DFA7"/><stop offset="1" stop-color="#9A78C9"/>
    </linearGradient>
    <linearGradient id="sky" x1="0" y1="100" x2="0" y2="356" gradientUnits="userSpaceOnUse">
      <stop stop-color="#FBF6FF"/><stop offset="1" stop-color="#EAF1FF"/>
    </linearGradient>
  </defs>
</svg>